<svg width="100" height="100" viewBox="0 0 100 100" fill="none" xmlns="http://www.w3.org/2000/svg">
<path d="M49.3862 39.5418H43.3487V29.8877H50.5529C54.2279 29.8877 56.2695 31.521 56.2695 34.5252C56.2695 37.7918 53.8487 39.5418 49.3862 39.5418ZM50.4654 42.8377H43.3487V53.4543H50.8154C55.3654 53.4543 57.757 51.6168 57.757 48.1168C57.757 44.6168 55.2779 42.8377 50.4654 42.8377ZM79.1654 21.4877V60.5127C79.1654 65.7918 74.7904 70.1668 69.5112 70.1668H30.4862C25.207 70.1668 20.832 65.7918 20.832 60.5127V21.4877C20.832 16.2085 25.207 11.8335 30.4862 11.8335H69.5112C74.7904 11.8335 79.1654 16.2085 79.1654 21.4877ZM61.6654 48.2918C61.6654 44.2668 58.982 41.3793 54.8695 40.8543V40.6793C57.7862 40.1543 60.0904 37.2377 60.0904 34.0877C60.0904 29.5668 56.5904 26.5627 51.457 26.5627H39.5862V56.7793H51.3695C57.8154 56.7793 61.6654 53.6002 61.6654 48.2918Z" fill="white"/>
<path d="M13.2784 91V79.3636H17.5398C18.3655 79.3636 19.0492 79.5 19.5909 79.7727C20.1326 80.0417 20.5379 80.4072 20.8068 80.8693C21.0758 81.3277 21.2102 81.8447 21.2102 82.4205C21.2102 82.9053 21.1212 83.3144 20.9432 83.6477C20.7652 83.9773 20.5265 84.2424 20.2273 84.4432C19.9318 84.6402 19.6061 84.7841 19.25 84.875V84.9886C19.6364 85.0076 20.0133 85.1326 20.3807 85.3636C20.7519 85.5909 21.0587 85.9148 21.3011 86.3352C21.5436 86.7557 21.6648 87.267 21.6648 87.8693C21.6648 88.464 21.5246 88.9981 21.2443 89.4716C20.9678 89.9413 20.5398 90.3144 19.9602 90.5909C19.3807 90.8636 18.6402 91 17.7386 91H13.2784ZM15.0341 89.4943H17.5682C18.4091 89.4943 19.0114 89.3314 19.375 89.0057C19.7386 88.6799 19.9205 88.2727 19.9205 87.7841C19.9205 87.4167 19.8277 87.0795 19.642 86.7727C19.4564 86.4659 19.1913 86.2216 18.8466 86.0398C18.5057 85.858 18.1004 85.767 17.6307 85.767H15.0341V89.4943ZM15.0341 84.3977H17.3864C17.7803 84.3977 18.1345 84.322 18.4489 84.1705C18.767 84.0189 19.0189 83.8068 19.2045 83.5341C19.3939 83.2576 19.4886 82.9318 19.4886 82.5568C19.4886 82.0758 19.3201 81.6723 18.983 81.3466C18.6458 81.0208 18.1288 80.858 17.4318 80.858H15.0341V84.3977ZM27.2869 91.1761C26.4688 91.1761 25.7547 90.9886 25.1449 90.6136C24.535 90.2386 24.0616 89.714 23.7244 89.0398C23.3873 88.3655 23.2188 87.5777 23.2188 86.6761C23.2188 85.7708 23.3873 84.9792 23.7244 84.3011C24.0616 83.6231 24.535 83.0966 25.1449 82.7216C25.7547 82.3466 26.4688 82.1591 27.2869 82.1591C28.1051 82.1591 28.8191 82.3466 29.429 82.7216C30.0388 83.0966 30.5123 83.6231 30.8494 84.3011C31.1866 84.9792 31.3551 85.7708 31.3551 86.6761C31.3551 87.5777 31.1866 88.3655 30.8494 89.0398C30.5123 89.714 30.0388 90.2386 29.429 90.6136C28.8191 90.9886 28.1051 91.1761 27.2869 91.1761ZM27.2926 89.75C27.8229 89.75 28.2623 89.6098 28.6108 89.3295C28.9593 89.0492 29.2169 88.6761 29.3835 88.2102C29.554 87.7443 29.6392 87.2311 29.6392 86.6705C29.6392 86.1136 29.554 85.6023 29.3835 85.1364C29.2169 84.6667 28.9593 84.2898 28.6108 84.0057C28.2623 83.7216 27.8229 83.5795 27.2926 83.5795C26.7585 83.5795 26.3153 83.7216 25.9631 84.0057C25.6146 84.2898 25.3551 84.6667 25.1847 85.1364C25.018 85.6023 24.9347 86.1136 24.9347 86.6705C24.9347 87.2311 25.018 87.7443 25.1847 88.2102C25.3551 88.6761 25.6146 89.0492 25.9631 89.3295C26.3153 89.6098 26.7585 89.75 27.2926 89.75ZM36.9276 91.1761C36.1094 91.1761 35.3954 90.9886 34.7855 90.6136C34.1757 90.2386 33.7022 89.714 33.3651 89.0398C33.0279 88.3655 32.8594 87.5777 32.8594 86.6761C32.8594 85.7708 33.0279 84.9792 33.3651 84.3011C33.7022 83.6231 34.1757 83.0966 34.7855 82.7216C35.3954 82.3466 36.1094 82.1591 36.9276 82.1591C37.7457 82.1591 38.4598 82.3466 39.0696 82.7216C39.6795 83.0966 40.1529 83.6231 40.4901 84.3011C40.8272 84.9792 40.9957 85.7708 40.9957 86.6761C40.9957 87.5777 40.8272 88.3655 40.4901 89.0398C40.1529 89.714 39.6795 90.2386 39.0696 90.6136C38.4598 90.9886 37.7457 91.1761 36.9276 91.1761ZM36.9332 89.75C37.4635 89.75 37.9029 89.6098 38.2514 89.3295C38.5999 89.0492 38.8575 88.6761 39.0241 88.2102C39.1946 87.7443 39.2798 87.2311 39.2798 86.6705C39.2798 86.1136 39.1946 85.6023 39.0241 85.1364C38.8575 84.6667 38.5999 84.2898 38.2514 84.0057C37.9029 83.7216 37.4635 83.5795 36.9332 83.5795C36.3991 83.5795 35.956 83.7216 35.6037 84.0057C35.2552 84.2898 34.9957 84.6667 34.8253 85.1364C34.6586 85.6023 34.5753 86.1136 34.5753 86.6705C34.5753 87.2311 34.6586 87.7443 34.8253 88.2102C34.9957 88.6761 35.2552 89.0492 35.6037 89.3295C35.956 89.6098 36.3991 89.75 36.9332 89.75ZM46.9659 82.2727V83.6364H42.1989V82.2727H46.9659ZM43.4773 80.1818H45.1761V88.4375C45.1761 88.767 45.2254 89.0152 45.3239 89.1818C45.4223 89.3447 45.5492 89.4564 45.7045 89.517C45.8636 89.5739 46.036 89.6023 46.2216 89.6023C46.358 89.6023 46.4773 89.5928 46.5795 89.5739C46.6818 89.5549 46.7614 89.5398 46.8182 89.5284L47.125 90.9318C47.0265 90.9697 46.8864 91.0076 46.7045 91.0455C46.5227 91.0871 46.2955 91.1098 46.0227 91.1136C45.5758 91.1212 45.1591 91.0417 44.7727 90.875C44.3864 90.7083 44.0739 90.4508 43.8352 90.1023C43.5966 89.7538 43.4773 89.3163 43.4773 88.7898V80.1818ZM55.2443 84.4034L53.7045 84.6761C53.6402 84.4792 53.5379 84.2917 53.3977 84.1136C53.2614 83.9356 53.0758 83.7898 52.8409 83.6761C52.6061 83.5625 52.3125 83.5057 51.9602 83.5057C51.4792 83.5057 51.0777 83.6136 50.7557 83.8295C50.4337 84.0417 50.2727 84.3163 50.2727 84.6534C50.2727 84.9451 50.3807 85.1799 50.5966 85.358C50.8125 85.536 51.161 85.6818 51.642 85.7955L53.0284 86.1136C53.8314 86.2992 54.4299 86.5852 54.8239 86.9716C55.2178 87.358 55.4148 87.8598 55.4148 88.4773C55.4148 89 55.2633 89.4659 54.9602 89.875C54.661 90.2803 54.2424 90.5985 53.7045 90.8295C53.1705 91.0606 52.5511 91.1761 51.8466 91.1761C50.8693 91.1761 50.072 90.9678 49.4545 90.5511C48.8371 90.1307 48.4583 89.5341 48.3182 88.7614L49.9602 88.5114C50.0625 88.9394 50.2727 89.2633 50.5909 89.483C50.9091 89.6989 51.3239 89.8068 51.8352 89.8068C52.392 89.8068 52.8371 89.6913 53.1705 89.4602C53.5038 89.2254 53.6705 88.9394 53.6705 88.6023C53.6705 88.3295 53.5682 88.1004 53.3636 87.9148C53.1629 87.7292 52.8542 87.589 52.4375 87.4943L50.9602 87.1705C50.1458 86.9848 49.5436 86.6894 49.1534 86.2841C48.767 85.8788 48.5739 85.3655 48.5739 84.7443C48.5739 84.2292 48.7178 83.7784 49.0057 83.392C49.2936 83.0057 49.6913 82.7045 50.1989 82.4886C50.7064 82.2689 51.2879 82.1591 51.9432 82.1591C52.8864 82.1591 53.6288 82.3636 54.1705 82.7727C54.7121 83.178 55.0701 83.7216 55.2443 84.4034ZM61.3565 82.2727V83.6364H56.5895V82.2727H61.3565ZM57.8679 80.1818H59.5668V88.4375C59.5668 88.767 59.616 89.0152 59.7145 89.1818C59.813 89.3447 59.9399 89.4564 60.0952 89.517C60.2543 89.5739 60.4266 89.6023 60.6122 89.6023C60.7486 89.6023 60.8679 89.5928 60.9702 89.5739C61.0724 89.5549 61.152 89.5398 61.2088 89.5284L61.5156 90.9318C61.4171 90.9697 61.277 91.0076 61.0952 91.0455C60.9134 91.0871 60.6861 91.1098 60.4134 91.1136C59.9664 91.1212 59.5497 91.0417 59.1634 90.875C58.777 90.7083 58.4645 90.4508 58.2259 90.1023C57.9872 89.7538 57.8679 89.3163 57.8679 88.7898V80.1818ZM63.2358 91V82.2727H64.8778V83.6591H64.9688C65.1278 83.1894 65.4081 82.8201 65.8097 82.5511C66.215 82.2784 66.6733 82.142 67.1847 82.142C67.2907 82.142 67.4157 82.1458 67.5597 82.1534C67.7074 82.161 67.8229 82.1705 67.9062 82.1818V83.8068C67.8381 83.7879 67.7169 83.767 67.5426 83.7443C67.3684 83.7178 67.1941 83.7045 67.0199 83.7045C66.6184 83.7045 66.2604 83.7898 65.946 83.9602C65.6354 84.1269 65.3892 84.3598 65.2074 84.6591C65.0256 84.9545 64.9347 85.2917 64.9347 85.6705V91H63.2358ZM71.8381 91.1932C71.285 91.1932 70.785 91.0909 70.3381 90.8864C69.8911 90.678 69.5369 90.3769 69.2756 89.983C69.018 89.589 68.8892 89.1061 68.8892 88.5341C68.8892 88.0417 68.9839 87.6364 69.1733 87.3182C69.3627 87 69.6184 86.7481 69.9403 86.5625C70.2623 86.3769 70.6222 86.2367 71.0199 86.142C71.4176 86.0473 71.8229 85.9754 72.2358 85.9261C72.7585 85.8655 73.1828 85.8163 73.5085 85.7784C73.8343 85.7367 74.071 85.6705 74.2188 85.5795C74.3665 85.4886 74.4403 85.3409 74.4403 85.1364V85.0966C74.4403 84.6004 74.3002 84.2159 74.0199 83.9432C73.7434 83.6705 73.3305 83.5341 72.7812 83.5341C72.2093 83.5341 71.7585 83.661 71.429 83.9148C71.1032 84.1648 70.8778 84.4432 70.7528 84.75L69.1562 84.3864C69.3456 83.8561 69.6222 83.428 69.9858 83.1023C70.3532 82.7727 70.7756 82.5341 71.2528 82.3864C71.7301 82.2348 72.232 82.1591 72.7585 82.1591C73.107 82.1591 73.4763 82.2008 73.8665 82.2841C74.2604 82.3636 74.6278 82.5114 74.9688 82.7273C75.3134 82.9432 75.5956 83.2519 75.8153 83.6534C76.035 84.0511 76.1449 84.5682 76.1449 85.2045V91H74.4858V89.8068H74.4176C74.3078 90.0265 74.143 90.2424 73.9233 90.4545C73.7036 90.6667 73.4214 90.8428 73.0767 90.983C72.732 91.1231 72.3191 91.1932 71.8381 91.1932ZM72.2074 89.8295C72.6771 89.8295 73.0786 89.7367 73.4119 89.5511C73.7491 89.3655 74.0047 89.1231 74.179 88.8239C74.357 88.5208 74.446 88.197 74.446 87.8523V86.7273C74.3854 86.7879 74.268 86.8447 74.0938 86.8977C73.9233 86.947 73.7282 86.9905 73.5085 87.0284C73.2888 87.0625 73.0748 87.0947 72.8665 87.125C72.6581 87.1515 72.4839 87.1742 72.3438 87.1932C72.0142 87.2348 71.7131 87.3049 71.4403 87.4034C71.1714 87.5019 70.9555 87.6439 70.7926 87.8295C70.6335 88.0114 70.554 88.2538 70.554 88.5568C70.554 88.9773 70.7093 89.2955 71.0199 89.5114C71.3305 89.7235 71.7263 89.8295 72.2074 89.8295ZM78.4077 94.2727V82.2727H80.0668V83.6875H80.2088C80.3073 83.5057 80.4493 83.2955 80.6349 83.0568C80.8205 82.8182 81.0781 82.6098 81.4077 82.4318C81.7372 82.25 82.1728 82.1591 82.7145 82.1591C83.419 82.1591 84.0478 82.3371 84.6009 82.6932C85.1539 83.0492 85.5876 83.5625 85.902 84.233C86.2202 84.9034 86.3793 85.7102 86.3793 86.6534C86.3793 87.5966 86.2221 88.4053 85.9077 89.0795C85.5933 89.75 85.1615 90.267 84.6122 90.6307C84.063 90.9905 83.4361 91.1705 82.7315 91.1705C82.2012 91.1705 81.7675 91.0814 81.4304 90.9034C81.0971 90.7254 80.8357 90.517 80.6463 90.2784C80.4569 90.0398 80.3111 89.8277 80.2088 89.642H80.1065V94.2727H78.4077ZM80.0724 86.6364C80.0724 87.25 80.1615 87.7879 80.3395 88.25C80.5175 88.7121 80.7751 89.0739 81.1122 89.3352C81.4493 89.5928 81.8622 89.7216 82.3509 89.7216C82.8584 89.7216 83.2827 89.5871 83.6236 89.3182C83.9645 89.0455 84.2221 88.6761 84.3963 88.2102C84.5743 87.7443 84.6634 87.2197 84.6634 86.6364C84.6634 86.0606 84.5762 85.5436 84.402 85.0852C84.2315 84.6269 83.974 84.2652 83.6293 84C83.2884 83.7348 82.8622 83.6023 82.3509 83.6023C81.8584 83.6023 81.4418 83.7292 81.1009 83.983C80.7637 84.2367 80.508 84.5909 80.3338 85.0455C80.1596 85.5 80.0724 86.0303 80.0724 86.6364Z" fill="white"/>
</svg>
