<svg width="100" height="100" viewBox="0 0 100 100" fill="none" xmlns="http://www.w3.org/2000/svg">
<path fill-rule="evenodd" clip-rule="evenodd" d="M20.25 3L25.829 66.196L50 73L74.171 66.196L79.75 3H20.25ZM67.7695 23.482L49.979 31.4375L49.9335 31.455H67.143L65.1725 55.122L50.0035 59.7525L49.979 59.742V59.7525L34.726 55.0345L33.746 43.117H41.313L41.803 49.291L49.909 51.4295L49.979 51.4085V51.419L58.3685 48.948L58.9425 39.001L49.979 38.973L33.249 38.917L32.6785 31.455L49.979 23.9195L50.987 23.482H32.024L31.1175 15.852H68.508L67.7695 23.482Z" fill="white"/>
<path d="M43.9432 85.1477H42.1705C42.1023 84.7689 41.9754 84.4356 41.7898 84.1477C41.6042 83.8598 41.3769 83.6155 41.108 83.4148C40.839 83.214 40.5379 83.0625 40.2045 82.9602C39.875 82.858 39.5246 82.8068 39.1534 82.8068C38.483 82.8068 37.8826 82.9754 37.3523 83.3125C36.8258 83.6496 36.4091 84.1439 36.1023 84.7955C35.7992 85.447 35.6477 86.2424 35.6477 87.1818C35.6477 88.1288 35.7992 88.928 36.1023 89.5795C36.4091 90.2311 36.8277 90.7235 37.358 91.0568C37.8883 91.3902 38.4848 91.5568 39.1477 91.5568C39.5152 91.5568 39.8636 91.5076 40.1932 91.4091C40.5265 91.3068 40.8277 91.1572 41.0966 90.9602C41.3655 90.7633 41.5928 90.5227 41.7784 90.2386C41.9678 89.9508 42.0985 89.6212 42.1705 89.25L43.9432 89.2557C43.8485 89.8277 43.6648 90.3542 43.392 90.8352C43.1231 91.3125 42.7765 91.7254 42.3523 92.0739C41.9318 92.4186 41.4508 92.6856 40.9091 92.875C40.3674 93.0644 39.7765 93.1591 39.1364 93.1591C38.1288 93.1591 37.2311 92.9205 36.4432 92.4432C35.6553 91.9621 35.0341 91.2746 34.5795 90.3807C34.1288 89.4867 33.9034 88.4205 33.9034 87.1818C33.9034 85.9394 34.1307 84.8731 34.5852 83.983C35.0398 83.089 35.661 82.4034 36.4489 81.9261C37.2367 81.4451 38.1326 81.2045 39.1364 81.2045C39.7538 81.2045 40.3295 81.2936 40.8636 81.4716C41.4015 81.6458 41.8845 81.9034 42.3125 82.2443C42.7405 82.5814 43.0947 82.9943 43.375 83.483C43.6553 83.9678 43.8447 84.5227 43.9432 85.1477ZM52.3906 84.4205C52.33 83.8826 52.08 83.4659 51.6406 83.1705C51.2012 82.8712 50.6482 82.7216 49.9815 82.7216C49.5043 82.7216 49.0914 82.7973 48.7429 82.9489C48.3944 83.0966 48.1236 83.3011 47.9304 83.5625C47.741 83.8201 47.6463 84.1136 47.6463 84.4432C47.6463 84.7197 47.7107 84.9583 47.8395 85.1591C47.9721 85.3598 48.1444 85.5284 48.3565 85.6648C48.5724 85.7973 48.8035 85.9091 49.0497 86C49.2959 86.0871 49.5327 86.1591 49.7599 86.2159L50.8963 86.5114C51.2675 86.6023 51.6482 86.7254 52.0384 86.8807C52.4285 87.036 52.7902 87.2405 53.1236 87.4943C53.4569 87.7481 53.7259 88.0625 53.9304 88.4375C54.1387 88.8125 54.2429 89.2614 54.2429 89.7841C54.2429 90.4432 54.0724 91.0284 53.7315 91.5398C53.3944 92.0511 52.9039 92.4545 52.2599 92.75C51.6198 93.0455 50.8452 93.1932 49.9361 93.1932C49.0649 93.1932 48.3111 93.0549 47.6747 92.7784C47.0384 92.5019 46.5402 92.1098 46.1804 91.6023C45.8205 91.0909 45.6217 90.4848 45.5838 89.7841H47.3452C47.3793 90.2045 47.5156 90.5549 47.7543 90.8352C47.9967 91.1117 48.3054 91.3182 48.6804 91.4545C49.0592 91.5871 49.474 91.6534 49.9247 91.6534C50.4209 91.6534 50.8622 91.5758 51.2486 91.4205C51.6387 91.2614 51.9455 91.0417 52.169 90.7614C52.3925 90.4773 52.5043 90.1458 52.5043 89.767C52.5043 89.4223 52.4058 89.1402 52.2088 88.9205C52.0156 88.7008 51.7524 88.5189 51.419 88.375C51.0895 88.2311 50.7164 88.1042 50.2997 87.9943L48.9247 87.6193C47.9929 87.3655 47.2543 86.9924 46.7088 86.5C46.1671 86.0076 45.8963 85.3561 45.8963 84.5455C45.8963 83.875 46.0781 83.2898 46.4418 82.7898C46.8054 82.2898 47.2978 81.9015 47.919 81.625C48.5402 81.3447 49.241 81.2045 50.0213 81.2045C50.8092 81.2045 51.5043 81.3428 52.1065 81.6193C52.7126 81.8958 53.1899 82.2765 53.5384 82.7614C53.8868 83.2424 54.0687 83.7955 54.0838 84.4205H52.3906ZM62.6875 84.4205C62.6269 83.8826 62.3769 83.4659 61.9375 83.1705C61.4981 82.8712 60.9451 82.7216 60.2784 82.7216C59.8011 82.7216 59.3883 82.7973 59.0398 82.9489C58.6913 83.0966 58.4205 83.3011 58.2273 83.5625C58.0379 83.8201 57.9432 84.1136 57.9432 84.4432C57.9432 84.7197 58.0076 84.9583 58.1364 85.1591C58.2689 85.3598 58.4413 85.5284 58.6534 85.6648C58.8693 85.7973 59.1004 85.9091 59.3466 86C59.5928 86.0871 59.8295 86.1591 60.0568 86.2159L61.1932 86.5114C61.5644 86.6023 61.9451 86.7254 62.3352 86.8807C62.7254 87.036 63.0871 87.2405 63.4205 87.4943C63.7538 87.7481 64.0227 88.0625 64.2273 88.4375C64.4356 88.8125 64.5398 89.2614 64.5398 89.7841C64.5398 90.4432 64.3693 91.0284 64.0284 91.5398C63.6913 92.0511 63.2008 92.4545 62.5568 92.75C61.9167 93.0455 61.142 93.1932 60.233 93.1932C59.3617 93.1932 58.608 93.0549 57.9716 92.7784C57.3352 92.5019 56.8371 92.1098 56.4773 91.6023C56.1174 91.0909 55.9186 90.4848 55.8807 89.7841H57.642C57.6761 90.2045 57.8125 90.5549 58.0511 90.8352C58.2936 91.1117 58.6023 91.3182 58.9773 91.4545C59.3561 91.5871 59.7708 91.6534 60.2216 91.6534C60.7178 91.6534 61.1591 91.5758 61.5455 91.4205C61.9356 91.2614 62.2424 91.0417 62.4659 90.7614C62.6894 90.4773 62.8011 90.1458 62.8011 89.767C62.8011 89.4223 62.7027 89.1402 62.5057 88.9205C62.3125 88.7008 62.0492 88.5189 61.7159 88.375C61.3864 88.2311 61.0133 88.1042 60.5966 87.9943L59.2216 87.6193C58.2898 87.3655 57.5511 86.9924 57.0057 86.5C56.464 86.0076 56.1932 85.3561 56.1932 84.5455C56.1932 83.875 56.375 83.2898 56.7386 82.7898C57.1023 82.2898 57.5947 81.9015 58.2159 81.625C58.8371 81.3447 59.5379 81.2045 60.3182 81.2045C61.1061 81.2045 61.8011 81.3428 62.4034 81.6193C63.0095 81.8958 63.4867 82.2765 63.8352 82.7614C64.1837 83.2424 64.3655 83.7955 64.3807 84.4205H62.6875Z" fill="white"/>
</svg>
