<svg width="100" height="100" viewBox="0 0 100 100" fill="none" xmlns="http://www.w3.org/2000/svg">
<g clip-path="url(#clip0_2862_243)">
<path d="M83.6777 37.8805L53.1139 7.32113C52.6954 6.90245 52.1986 6.57032 51.6517 6.34372C51.1048 6.11712 50.5187 6.00049 49.9267 6.00049C49.3348 6.00049 48.7486 6.11712 48.2017 6.34372C47.6549 6.57032 47.158 6.90245 46.7395 7.32113L40.3958 13.6649L48.4458 21.7149C49.3952 21.3907 50.4166 21.34 51.3934 21.5685C52.3703 21.797 53.2632 22.2956 53.9703 23.0072C54.6773 23.7189 55.1701 24.615 55.3923 25.5933C55.6146 26.5715 55.5573 27.5926 55.227 28.5399L62.9839 36.3011C64.1315 35.8971 65.3825 35.8958 66.5309 36.2977C67.6794 36.6995 68.6567 37.4804 69.302 38.5118C69.9474 39.5432 70.2222 40.7637 70.0814 41.9722C69.9405 43.1807 69.3923 44.3052 68.527 45.1605C67.6511 46.0418 66.4963 46.5917 65.26 46.7161C64.0237 46.8406 62.7825 46.532 61.7485 45.843C60.7144 45.154 59.9517 44.1273 59.5905 42.9384C59.2294 41.7494 59.2922 40.472 59.7683 39.3243L52.5364 32.088V51.1324C53.6357 51.6765 54.5152 52.5809 55.0285 53.6949C55.5417 54.8089 55.6577 56.0652 55.357 57.2543C55.0563 58.4435 54.3572 59.4936 53.3761 60.2298C52.395 60.9659 51.1913 61.3435 49.9655 61.2998C48.7397 61.256 47.566 60.7934 46.6399 59.9892C45.7138 59.1849 45.0914 58.0876 44.8763 56.88C44.6612 55.6725 44.8665 54.4277 45.4579 53.3531C46.0493 52.2786 46.9911 51.4392 48.1264 50.9749V31.7555C47.4714 31.4871 46.876 31.0917 46.3746 30.5922C45.8731 30.0926 45.4755 29.4987 45.2046 28.8447C44.9338 28.1908 44.795 27.4897 44.7964 26.7818C44.7978 26.074 44.9393 25.3734 45.2127 24.7205L37.2808 16.7843L16.3245 37.7405C15.9059 38.159 15.5737 38.6558 15.3471 39.2027C15.1205 39.7496 15.0039 40.3357 15.0039 40.9277C15.0039 41.5196 15.1205 42.1058 15.3471 42.6527C15.5737 43.1995 15.9059 43.6964 16.3245 44.1149L46.8883 74.6786C47.3068 75.0973 47.8036 75.4294 48.3505 75.656C48.8974 75.8826 49.4835 75.9993 50.0755 75.9993C50.6674 75.9993 51.2536 75.8826 51.8005 75.656C52.3473 75.4294 52.8442 75.0973 53.2627 74.6786L83.682 44.2593C84.5265 43.4135 85.0009 42.2672 85.0009 41.0721C85.0009 39.8769 84.5265 38.7306 83.682 37.8849" fill="white"/>
</g>
<path d="M47.1534 83.0398C47.0436 82.6951 46.8958 82.3864 46.7102 82.1136C46.5284 81.8371 46.3106 81.6023 46.0568 81.4091C45.803 81.2121 45.5133 81.0625 45.1875 80.9602C44.8655 80.858 44.5114 80.8068 44.125 80.8068C43.4697 80.8068 42.8788 80.9754 42.3523 81.3125C41.8258 81.6496 41.4091 82.1439 41.1023 82.7955C40.7992 83.4432 40.6477 84.2367 40.6477 85.1761C40.6477 86.1193 40.8011 86.9167 41.108 87.5682C41.4148 88.2197 41.8352 88.714 42.3693 89.0511C42.9034 89.3883 43.5114 89.5568 44.1932 89.5568C44.8258 89.5568 45.3769 89.428 45.8466 89.1705C46.3201 88.9129 46.6856 88.5492 46.9432 88.0795C47.2045 87.6061 47.3352 87.0492 47.3352 86.4091L47.7898 86.4943H44.4602V85.0455H49.0341V86.3693C49.0341 87.3466 48.8258 88.1951 48.4091 88.9148C47.9962 89.6307 47.4242 90.1837 46.6932 90.5739C45.9659 90.964 45.1326 91.1591 44.1932 91.1591C43.1402 91.1591 42.2159 90.9167 41.4205 90.4318C40.6288 89.947 40.0114 89.2595 39.5682 88.3693C39.125 87.4754 38.9034 86.4148 38.9034 85.1875C38.9034 84.2595 39.0322 83.4261 39.2898 82.6875C39.5473 81.9489 39.9091 81.322 40.375 80.8068C40.8447 80.2879 41.3958 79.892 42.0284 79.6193C42.6648 79.3428 43.3598 79.2045 44.1136 79.2045C44.7424 79.2045 45.3277 79.2973 45.8693 79.483C46.4148 79.6686 46.8996 79.9318 47.3239 80.2727C47.7519 80.6136 48.1061 81.0189 48.3864 81.4886C48.6667 81.9545 48.8561 82.4716 48.9545 83.0398H47.1534ZM51.6733 91V82.2727H53.3722V91H51.6733ZM52.5312 80.9261C52.2358 80.9261 51.982 80.8277 51.7699 80.6307C51.5616 80.4299 51.4574 80.1913 51.4574 79.9148C51.4574 79.6345 51.5616 79.3958 51.7699 79.1989C51.982 78.9981 52.2358 78.8977 52.5312 78.8977C52.8267 78.8977 53.0786 78.9981 53.2869 79.1989C53.4991 79.3958 53.6051 79.6345 53.6051 79.9148C53.6051 80.1913 53.4991 80.4299 53.2869 80.6307C53.0786 80.8277 52.8267 80.9261 52.5312 80.9261ZM59.7315 82.2727V83.6364H54.9645V82.2727H59.7315ZM56.2429 80.1818H57.9418V88.4375C57.9418 88.767 57.991 89.0152 58.0895 89.1818C58.188 89.3447 58.3149 89.4564 58.4702 89.517C58.6293 89.5739 58.8016 89.6023 58.9872 89.6023C59.1236 89.6023 59.2429 89.5928 59.3452 89.5739C59.4474 89.5549 59.527 89.5398 59.5838 89.5284L59.8906 90.9318C59.7921 90.9697 59.652 91.0076 59.4702 91.0455C59.2884 91.0871 59.0611 91.1098 58.7884 91.1136C58.3414 91.1212 57.9247 91.0417 57.5384 90.875C57.152 90.7083 56.8395 90.4508 56.6009 90.1023C56.3622 89.7538 56.2429 89.3163 56.2429 88.7898V80.1818Z" fill="white"/>
<defs>
<clipPath id="clip0_2862_243">
<rect width="70" height="70" fill="white" transform="translate(15 6)"/>
</clipPath>
</defs>
</svg>
