<svg width="100" height="100" viewBox="0 0 100 100" fill="none" xmlns="http://www.w3.org/2000/svg">
<path d="M49.9987 11.8335C46.1685 11.8335 42.3758 12.5879 38.8371 14.0537C35.2984 15.5194 32.0831 17.6678 29.3748 20.3762C23.9049 25.846 20.832 33.2647 20.832 41.0002C20.832 53.8918 29.2029 64.8293 40.782 68.7085C42.2404 68.9418 42.707 68.0377 42.707 67.2502V62.321C34.6279 64.071 32.907 58.4127 32.907 58.4127C31.5654 55.0293 29.6695 54.1252 29.6695 54.1252C27.0154 52.3168 29.8737 52.3752 29.8737 52.3752C32.7904 52.5793 34.3362 55.3793 34.3362 55.3793C36.8737 59.8127 41.1612 58.5002 42.8237 57.8002C43.0862 55.9043 43.8445 54.621 44.6612 53.8918C38.1862 53.1627 31.3904 50.6543 31.3904 39.5418C31.3904 36.3043 32.4987 33.7085 34.3945 31.6377C34.1029 30.9085 33.082 27.8752 34.6862 23.9377C34.6862 23.9377 37.1362 23.1502 42.707 26.9127C45.0112 26.271 47.5195 25.9502 49.9987 25.9502C52.4779 25.9502 54.9862 26.271 57.2904 26.9127C62.8612 23.1502 65.3112 23.9377 65.3112 23.9377C66.9154 27.8752 65.8945 30.9085 65.6029 31.6377C67.4987 33.7085 68.607 36.3043 68.607 39.5418C68.607 50.6835 61.782 53.1335 55.2779 53.8627C56.3279 54.7668 57.2904 56.546 57.2904 59.2585V67.2502C57.2904 68.0377 57.757 68.971 59.2445 68.7085C70.8237 64.8002 79.1654 53.8918 79.1654 41.0002C79.1654 37.1699 78.4109 33.3772 76.9452 29.8386C75.4794 26.2999 73.331 23.0846 70.6226 20.3762C67.9143 17.6678 64.699 15.5194 61.1603 14.0537C57.6216 12.5879 53.8289 11.8335 49.9987 11.8335Z" fill="white"/>
<path d="M33.1534 83.0398C33.0436 82.6951 32.8958 82.3864 32.7102 82.1136C32.5284 81.8371 32.3106 81.6023 32.0568 81.4091C31.803 81.2121 31.5133 81.0625 31.1875 80.9602C30.8655 80.858 30.5114 80.8068 30.125 80.8068C29.4697 80.8068 28.8788 80.9754 28.3523 81.3125C27.8258 81.6496 27.4091 82.1439 27.1023 82.7955C26.7992 83.4432 26.6477 84.2367 26.6477 85.1761C26.6477 86.1193 26.8011 86.9167 27.108 87.5682C27.4148 88.2197 27.8352 88.714 28.3693 89.0511C28.9034 89.3883 29.5114 89.5568 30.1932 89.5568C30.8258 89.5568 31.3769 89.428 31.8466 89.1705C32.3201 88.9129 32.6856 88.5492 32.9432 88.0795C33.2045 87.6061 33.3352 87.0492 33.3352 86.4091L33.7898 86.4943H30.4602V85.0455H35.0341V86.3693C35.0341 87.3466 34.8258 88.1951 34.4091 88.9148C33.9962 89.6307 33.4242 90.1837 32.6932 90.5739C31.9659 90.964 31.1326 91.1591 30.1932 91.1591C29.1402 91.1591 28.2159 90.9167 27.4205 90.4318C26.6288 89.947 26.0114 89.2595 25.5682 88.3693C25.125 87.4754 24.9034 86.4148 24.9034 85.1875C24.9034 84.2595 25.0322 83.4261 25.2898 82.6875C25.5473 81.9489 25.9091 81.322 26.375 80.8068C26.8447 80.2879 27.3958 79.892 28.0284 79.6193C28.6648 79.3428 29.3598 79.2045 30.1136 79.2045C30.7424 79.2045 31.3277 79.2973 31.8693 79.483C32.4148 79.6686 32.8996 79.9318 33.3239 80.2727C33.7519 80.6136 34.1061 81.0189 34.3864 81.4886C34.6667 81.9545 34.8561 82.4716 34.9545 83.0398H33.1534ZM37.6733 91V82.2727H39.3722V91H37.6733ZM38.5312 80.9261C38.2358 80.9261 37.982 80.8277 37.7699 80.6307C37.5616 80.4299 37.4574 80.1913 37.4574 79.9148C37.4574 79.6345 37.5616 79.3958 37.7699 79.1989C37.982 78.9981 38.2358 78.8977 38.5312 78.8977C38.8267 78.8977 39.0786 78.9981 39.2869 79.1989C39.4991 79.3958 39.6051 79.6345 39.6051 79.9148C39.6051 80.1913 39.4991 80.4299 39.2869 80.6307C39.0786 80.8277 38.8267 80.9261 38.5312 80.9261ZM45.7315 82.2727V83.6364H40.9645V82.2727H45.7315ZM42.2429 80.1818H43.9418V88.4375C43.9418 88.767 43.991 89.0152 44.0895 89.1818C44.188 89.3447 44.3149 89.4564 44.4702 89.517C44.6293 89.5739 44.8016 89.6023 44.9872 89.6023C45.1236 89.6023 45.2429 89.5928 45.3452 89.5739C45.4474 89.5549 45.527 89.5398 45.5838 89.5284L45.8906 90.9318C45.7921 90.9697 45.652 91.0076 45.4702 91.0455C45.2884 91.0871 45.0611 91.1098 44.7884 91.1136C44.3414 91.1212 43.9247 91.0417 43.5384 90.875C43.152 90.7083 42.8395 90.4508 42.6009 90.1023C42.3622 89.7538 42.2429 89.3163 42.2429 88.7898V80.1818ZM49.4972 85.8182V91H47.7983V79.3636H49.4744V83.6932H49.5824C49.7869 83.2235 50.0994 82.8504 50.5199 82.5739C50.9403 82.2973 51.4896 82.1591 52.1676 82.1591C52.7661 82.1591 53.2888 82.2822 53.7358 82.5284C54.1866 82.7746 54.535 83.142 54.7812 83.6307C55.0312 84.1155 55.1562 84.7216 55.1562 85.4489V91H53.4574V85.6534C53.4574 85.0133 53.2926 84.517 52.9631 84.1648C52.6335 83.8087 52.1752 83.6307 51.5881 83.6307C51.1866 83.6307 50.8267 83.7159 50.5085 83.8864C50.1941 84.0568 49.946 84.3068 49.7642 84.6364C49.5862 84.9621 49.4972 85.3561 49.4972 85.8182ZM62.9517 87.3807V82.2727H64.6562V91H62.9858V89.4886H62.8949C62.6941 89.9545 62.3722 90.3428 61.929 90.6534C61.4896 90.9602 60.9422 91.1136 60.2869 91.1136C59.7263 91.1136 59.2301 90.9905 58.7983 90.7443C58.3703 90.4943 58.0331 90.125 57.7869 89.6364C57.5445 89.1477 57.4233 88.5436 57.4233 87.8239V82.2727H59.1222V87.6193C59.1222 88.214 59.2869 88.6875 59.6165 89.0398C59.946 89.392 60.3741 89.5682 60.9006 89.5682C61.2188 89.5682 61.535 89.4886 61.8494 89.3295C62.1676 89.1705 62.4309 88.9299 62.6392 88.608C62.8513 88.286 62.9555 87.8769 62.9517 87.3807ZM67.0753 91V79.3636H68.7741V83.6875H68.8764C68.9749 83.5057 69.117 83.2955 69.3026 83.0568C69.4882 82.8182 69.7457 82.6098 70.0753 82.4318C70.4048 82.25 70.8404 82.1591 71.3821 82.1591C72.0866 82.1591 72.7154 82.3371 73.2685 82.6932C73.8215 83.0492 74.2552 83.5625 74.5696 84.233C74.8878 84.9034 75.0469 85.7102 75.0469 86.6534C75.0469 87.5966 74.8897 88.4053 74.5753 89.0795C74.2609 89.75 73.8291 90.267 73.2798 90.6307C72.7306 90.9905 72.1037 91.1705 71.3991 91.1705C70.8688 91.1705 70.4351 91.0814 70.098 90.9034C69.7647 90.7254 69.5033 90.517 69.3139 90.2784C69.1245 90.0398 68.9787 89.8277 68.8764 89.642H68.7344V91H67.0753ZM68.7401 86.6364C68.7401 87.25 68.8291 87.7879 69.0071 88.25C69.1851 88.7121 69.4427 89.0739 69.7798 89.3352C70.117 89.5928 70.5298 89.7216 71.0185 89.7216C71.526 89.7216 71.9503 89.5871 72.2912 89.3182C72.6321 89.0455 72.8897 88.6761 73.0639 88.2102C73.242 87.7443 73.331 87.2197 73.331 86.6364C73.331 86.0606 73.2438 85.5436 73.0696 85.0852C72.8991 84.6269 72.6416 84.2652 72.2969 84C71.956 83.7348 71.5298 83.6023 71.0185 83.6023C70.526 83.6023 70.1094 83.7292 69.7685 83.983C69.4313 84.2367 69.1757 84.5909 69.0014 85.0455C68.8272 85.5 68.7401 86.0303 68.7401 86.6364Z" fill="white"/>
</svg>
