<svg width="100" height="100" viewBox="0 0 100 100" fill="none" xmlns="http://www.w3.org/2000/svg">
<path d="M50 58.0193L63.475 54.356L65.2921 34.5868H41.3258L40.7308 28.0127H65.89L66.5521 21.5639H33.4479L35.3029 41.0414H58.1113L57.35 49.4006L50 51.346L42.65 49.4006L42.1892 44.0222H35.5683L36.5279 54.3589L50 58.0193ZM23.75 10.8335H76.25L71.5163 63.3335L50 69.1668L28.4838 63.3335L23.75 10.8335Z" fill="white"/>
<path d="M28.2784 90V78.3636H30.0341V83.4205H35.8352V78.3636H37.5966V90H35.8352V84.9261H30.0341V90H28.2784ZM39.5795 79.875V78.3636H48.5852V79.875H44.9545V90H43.2045V79.875H39.5795ZM50.5753 78.3636H52.706L56.4105 87.4091H56.5469L60.2514 78.3636H62.3821V90H60.7116V81.5795H60.6037L57.1719 89.983H55.7855L52.3537 81.5739H52.2457V90H50.5753V78.3636ZM64.9347 90V78.3636H66.6903V88.4886H71.9631V90H64.9347Z" fill="white"/>
</svg>
