<svg width="20" height="20" viewBox="0 0 20 20" fill="none" xmlns="http://www.w3.org/2000/svg">
<path d="M10.8584 1.6665C11.7959 1.669 12.2718 1.674 12.6826 1.68567L12.8443 1.6915C13.031 1.69817 13.2151 1.7065 13.4376 1.7165C14.3243 1.75817 14.9293 1.89817 15.4601 2.104C16.0101 2.31567 16.4735 2.60234 16.9368 3.06484C17.3605 3.48142 17.6884 3.98533 17.8976 4.5415C18.1035 5.07234 18.2435 5.67734 18.2851 6.56484C18.2951 6.7865 18.3034 6.97067 18.3101 7.15817L18.3151 7.31984C18.3276 7.72984 18.3326 8.20567 18.3343 9.14317L18.3351 9.76484V10.8565C18.3372 11.4643 18.3308 12.0722 18.316 12.6798L18.311 12.8415C18.3043 13.029 18.296 13.2132 18.286 13.4348C18.2443 14.3223 18.1026 14.9265 17.8976 15.4582C17.689 16.0147 17.3611 16.5187 16.9368 16.9348C16.5201 17.3584 16.0162 17.6863 15.4601 17.8957C14.9293 18.1015 14.3243 18.2415 13.4376 18.2832C13.2399 18.2925 13.0421 18.3008 12.8443 18.3082L12.6826 18.3132C12.2718 18.3248 11.7959 18.3307 10.8584 18.3323L10.2368 18.3332H9.14595C8.53783 18.3353 7.92972 18.3289 7.32178 18.314L7.16012 18.309C6.96229 18.3015 6.76451 18.2929 6.56678 18.2832C5.68012 18.2415 5.07512 18.1015 4.54345 17.8957C3.98734 17.6868 3.48363 17.3589 3.06762 16.9348C2.64349 16.5184 2.3153 16.0145 2.10595 15.4582C1.90012 14.9273 1.76012 14.3223 1.71845 13.4348C1.70917 13.2371 1.70083 13.0393 1.69345 12.8415L1.68928 12.6798C1.67393 12.0722 1.66698 11.4643 1.66845 10.8565V9.14317C1.66612 8.53534 1.67224 7.9275 1.68678 7.31984L1.69262 7.15817C1.69928 6.97067 1.70762 6.7865 1.71762 6.56484C1.75928 5.67734 1.89928 5.07317 2.10512 4.5415C2.31438 3.98476 2.64322 3.48069 3.06845 3.06484C3.48436 2.64107 3.98774 2.31316 4.54345 2.104C5.07512 1.89817 5.67928 1.75817 6.56678 1.7165C6.78845 1.7065 6.97345 1.69817 7.16012 1.6915L7.32178 1.6865C7.92944 1.6717 8.53728 1.66531 9.14512 1.66734L10.8584 1.6665ZM10.0018 5.83317C8.89671 5.83317 7.83691 6.27216 7.0555 7.05356C6.2741 7.83496 5.83512 8.89477 5.83512 9.99984C5.83512 11.1049 6.2741 12.1647 7.0555 12.9461C7.83691 13.7275 8.89671 14.1665 10.0018 14.1665C11.1069 14.1665 12.1667 13.7275 12.9481 12.9461C13.7295 12.1647 14.1685 11.1049 14.1685 9.99984C14.1685 8.89477 13.7295 7.83496 12.9481 7.05356C12.1667 6.27216 11.1069 5.83317 10.0018 5.83317ZM10.0018 7.49984C10.3301 7.49978 10.6552 7.56439 10.9585 7.68998C11.2619 7.81557 11.5375 7.99967 11.7697 8.23178C12.0019 8.46388 12.1861 8.73945 12.3117 9.04274C12.4374 9.34604 12.5021 9.67112 12.5022 9.99942C12.5023 10.3277 12.4376 10.6528 12.3121 10.9562C12.1865 11.2595 12.0024 11.5351 11.7703 11.7673C11.5382 11.9995 11.2626 12.1837 10.9593 12.3094C10.656 12.4351 10.3309 12.4998 10.0026 12.4998C9.33958 12.4998 8.70369 12.2364 8.23485 11.7676C7.76601 11.2988 7.50262 10.6629 7.50262 9.99984C7.50262 9.3368 7.76601 8.70091 8.23485 8.23207C8.70369 7.76323 9.33958 7.49984 10.0026 7.49984M14.3776 4.58317C14.1013 4.58317 13.8364 4.69292 13.641 4.88827C13.4457 5.08362 13.3359 5.34857 13.3359 5.62484C13.3359 5.9011 13.4457 6.16606 13.641 6.36141C13.8364 6.55676 14.1013 6.6665 14.3776 6.6665C14.6539 6.6665 14.9188 6.55676 15.1142 6.36141C15.3095 6.16606 15.4193 5.9011 15.4193 5.62484C15.4193 5.34857 15.3095 5.08362 15.1142 4.88827C14.9188 4.69292 14.6539 4.58317 14.3776 4.58317Z" fill="#131A35"/>
</svg>
