<svg width="100" height="100" viewBox="0 0 100 100" fill="none" xmlns="http://www.w3.org/2000/svg">
<g clip-path="url(#clip0_2862_213)">
<mask id="mask0_2862_213" style="mask-type:luminance" maskUnits="userSpaceOnUse" x="15" y="5" width="70" height="70">
<path d="M15 5H85V75H15V5Z" fill="white"/>
</mask>
<g mask="url(#mask0_2862_213)">
<path fill-rule="evenodd" clip-rule="evenodd" d="M15 5H85V75H15V5ZM68.5121 63.6833C65.2658 63.6833 63.4313 61.9917 62.0225 59.6875L56.6763 62.7938C58.6071 66.6088 62.5533 69.5196 68.6638 69.5196C74.9113 69.5196 79.5633 66.2763 79.5633 60.3525C79.5633 54.8604 76.4075 52.4192 70.8192 50.0188L69.1742 49.3158C66.3508 48.0908 65.1288 47.2946 65.1288 45.32C65.1288 43.7246 66.3538 42.5025 68.2788 42.5025C70.1658 42.5025 71.3821 43.2988 72.5108 45.32L77.6325 42.0329C75.4654 38.2208 72.4613 36.7654 68.2788 36.7654C62.4046 36.7654 58.645 40.5221 58.645 45.4571C58.645 50.8092 61.795 53.3438 66.5433 55.365L68.1883 56.0708C71.1896 57.3833 72.9775 58.1825 72.9775 60.4371C72.9775 62.3213 71.2363 63.6833 68.5121 63.6833ZM43.0204 63.6396C40.76 63.6396 39.8179 62.0938 38.7854 60.2563L33.4304 63.4996C34.9821 66.7837 38.0329 69.5079 43.2975 69.5079C49.1279 69.5079 53.1208 66.4075 53.1208 59.5971V37.1388H46.5437V59.5096C46.5437 62.7967 45.1788 63.6396 43.0175 63.6396" fill="white"/>
</g>
</g>
<path d="M15.8011 78.3636H17.5511V86.6136C17.5511 87.3598 17.4034 87.9981 17.108 88.5284C16.8163 89.0587 16.4053 89.464 15.875 89.7443C15.3447 90.0208 14.7235 90.1591 14.0114 90.1591C13.3561 90.1591 12.767 90.0398 12.2443 89.8011C11.7254 89.5625 11.3144 89.2159 11.0114 88.7614C10.7121 88.303 10.5625 87.7462 10.5625 87.0909H12.3068C12.3068 87.4129 12.3807 87.6913 12.5284 87.9261C12.6799 88.161 12.8864 88.3447 13.1477 88.4773C13.4129 88.6061 13.7159 88.6705 14.0568 88.6705C14.428 88.6705 14.7424 88.5928 15 88.4375C15.2614 88.2784 15.4602 88.0455 15.5966 87.7386C15.733 87.4318 15.8011 87.0568 15.8011 86.6136V78.3636ZM22.5099 90.1932C21.9569 90.1932 21.4569 90.0909 21.0099 89.8864C20.563 89.678 20.2088 89.3769 19.9474 88.983C19.6899 88.589 19.5611 88.1061 19.5611 87.5341C19.5611 87.0417 19.6558 86.6364 19.8452 86.3182C20.0346 86 20.2902 85.7481 20.6122 85.5625C20.9342 85.3769 21.294 85.2367 21.6918 85.142C22.0895 85.0473 22.4948 84.9754 22.9077 84.9261C23.4304 84.8655 23.8546 84.8163 24.1804 84.7784C24.5062 84.7367 24.7429 84.6705 24.8906 84.5795C25.0384 84.4886 25.1122 84.3409 25.1122 84.1364V84.0966C25.1122 83.6004 24.9721 83.2159 24.6918 82.9432C24.4152 82.6705 24.0024 82.5341 23.4531 82.5341C22.8812 82.5341 22.4304 82.661 22.1009 82.9148C21.7751 83.1648 21.5497 83.4432 21.4247 83.75L19.8281 83.3864C20.0175 82.8561 20.294 82.428 20.6577 82.1023C21.0251 81.7727 21.4474 81.5341 21.9247 81.3864C22.402 81.2348 22.9039 81.1591 23.4304 81.1591C23.7789 81.1591 24.1482 81.2008 24.5384 81.2841C24.9323 81.3636 25.2997 81.5114 25.6406 81.7273C25.9853 81.9432 26.2675 82.2519 26.4872 82.6534C26.7069 83.0511 26.8168 83.5682 26.8168 84.2045V90H25.1577V88.8068H25.0895C24.9796 89.0265 24.8149 89.2424 24.5952 89.4545C24.3755 89.6667 24.0933 89.8428 23.7486 89.983C23.4039 90.1231 22.991 90.1932 22.5099 90.1932ZM22.8793 88.8295C23.349 88.8295 23.7505 88.7367 24.0838 88.5511C24.4209 88.3655 24.6766 88.1231 24.8509 87.8239C25.0289 87.5208 25.1179 87.197 25.1179 86.8523V85.7273C25.0573 85.7879 24.9399 85.8447 24.7656 85.8977C24.5952 85.947 24.4001 85.9905 24.1804 86.0284C23.9607 86.0625 23.7467 86.0947 23.5384 86.125C23.33 86.1515 23.1558 86.1742 23.0156 86.1932C22.6861 86.2348 22.3849 86.3049 22.1122 86.4034C21.8433 86.5019 21.6274 86.6439 21.4645 86.8295C21.3054 87.0114 21.2259 87.2538 21.2259 87.5568C21.2259 87.9773 21.3812 88.2955 21.6918 88.5114C22.0024 88.7235 22.3982 88.8295 22.8793 88.8295ZM36.233 81.2727L33.0682 90H31.25L28.0795 81.2727H29.9034L32.1136 87.9886H32.2045L34.4091 81.2727H36.233ZM40.1193 90.1932C39.5663 90.1932 39.0663 90.0909 38.6193 89.8864C38.1723 89.678 37.8182 89.3769 37.5568 88.983C37.2992 88.589 37.1705 88.1061 37.1705 87.5341C37.1705 87.0417 37.2652 86.6364 37.4545 86.3182C37.6439 86 37.8996 85.7481 38.2216 85.5625C38.5436 85.3769 38.9034 85.2367 39.3011 85.142C39.6989 85.0473 40.1042 84.9754 40.517 84.9261C41.0398 84.8655 41.464 84.8163 41.7898 84.7784C42.1155 84.7367 42.3523 84.6705 42.5 84.5795C42.6477 84.4886 42.7216 84.3409 42.7216 84.1364V84.0966C42.7216 83.6004 42.5814 83.2159 42.3011 82.9432C42.0246 82.6705 41.6117 82.5341 41.0625 82.5341C40.4905 82.5341 40.0398 82.661 39.7102 82.9148C39.3845 83.1648 39.1591 83.4432 39.0341 83.75L37.4375 83.3864C37.6269 82.8561 37.9034 82.428 38.267 82.1023C38.6345 81.7727 39.0568 81.5341 39.5341 81.3864C40.0114 81.2348 40.5133 81.1591 41.0398 81.1591C41.3883 81.1591 41.7576 81.2008 42.1477 81.2841C42.5417 81.3636 42.9091 81.5114 43.25 81.7273C43.5947 81.9432 43.8769 82.2519 44.0966 82.6534C44.3163 83.0511 44.4261 83.5682 44.4261 84.2045V90H42.767V88.8068H42.6989C42.589 89.0265 42.4242 89.2424 42.2045 89.4545C41.9848 89.6667 41.7027 89.8428 41.358 89.983C41.0133 90.1231 40.6004 90.1932 40.1193 90.1932ZM40.4886 88.8295C40.9583 88.8295 41.3598 88.7367 41.6932 88.5511C42.0303 88.3655 42.286 88.1231 42.4602 87.8239C42.6383 87.5208 42.7273 87.197 42.7273 86.8523V85.7273C42.6667 85.7879 42.5492 85.8447 42.375 85.8977C42.2045 85.947 42.0095 85.9905 41.7898 86.0284C41.5701 86.0625 41.3561 86.0947 41.1477 86.125C40.9394 86.1515 40.7652 86.1742 40.625 86.1932C40.2955 86.2348 39.9943 86.3049 39.7216 86.4034C39.4527 86.5019 39.2367 86.6439 39.0739 86.8295C38.9148 87.0114 38.8352 87.2538 38.8352 87.5568C38.8352 87.9773 38.9905 88.2955 39.3011 88.5114C39.6117 88.7235 40.0076 88.8295 40.4886 88.8295ZM53.2287 83.4034L51.6889 83.6761C51.6245 83.4792 51.5223 83.2917 51.3821 83.1136C51.2457 82.9356 51.0601 82.7898 50.8253 82.6761C50.5904 82.5625 50.2969 82.5057 49.9446 82.5057C49.4635 82.5057 49.062 82.6136 48.7401 82.8295C48.4181 83.0417 48.2571 83.3163 48.2571 83.6534C48.2571 83.9451 48.3651 84.1799 48.581 84.358C48.7969 84.536 49.1454 84.6818 49.6264 84.7955L51.0128 85.1136C51.8158 85.2992 52.4143 85.5852 52.8082 85.9716C53.2022 86.358 53.3991 86.8598 53.3991 87.4773C53.3991 88 53.2476 88.4659 52.9446 88.875C52.6454 89.2803 52.2268 89.5985 51.6889 89.8295C51.1548 90.0606 50.5355 90.1761 49.831 90.1761C48.8537 90.1761 48.0563 89.9678 47.4389 89.5511C46.8215 89.1307 46.4427 88.5341 46.3026 87.7614L47.9446 87.5114C48.0469 87.9394 48.2571 88.2633 48.5753 88.483C48.8935 88.6989 49.3082 88.8068 49.8196 88.8068C50.3764 88.8068 50.8215 88.6913 51.1548 88.4602C51.4882 88.2254 51.6548 87.9394 51.6548 87.6023C51.6548 87.3295 51.5526 87.1004 51.348 86.9148C51.1473 86.7292 50.8385 86.589 50.4219 86.4943L48.9446 86.1705C48.1302 85.9848 47.5279 85.6894 47.1378 85.2841C46.7514 84.8788 46.5582 84.3655 46.5582 83.7443C46.5582 83.2292 46.7022 82.7784 46.9901 82.392C47.2779 82.0057 47.6757 81.7045 48.1832 81.4886C48.6908 81.2689 49.2723 81.1591 49.9276 81.1591C50.8707 81.1591 51.6132 81.3636 52.1548 81.7727C52.6965 82.178 53.0545 82.7216 53.2287 83.4034ZM58.9432 90.1761C58.0985 90.1761 57.3712 89.9848 56.7614 89.6023C56.1553 89.2159 55.6894 88.6837 55.3636 88.0057C55.0379 87.3277 54.875 86.5511 54.875 85.6761C54.875 84.7898 55.0417 84.0076 55.375 83.3295C55.7083 82.6477 56.178 82.1155 56.7841 81.733C57.3902 81.3504 58.1042 81.1591 58.9261 81.1591C59.589 81.1591 60.1799 81.2822 60.6989 81.5284C61.2178 81.7708 61.6364 82.1117 61.9545 82.5511C62.2765 82.9905 62.4678 83.5038 62.5284 84.0909H60.875C60.7841 83.6818 60.5758 83.3295 60.25 83.0341C59.928 82.7386 59.4962 82.5909 58.9545 82.5909C58.4811 82.5909 58.0663 82.7159 57.7102 82.9659C57.358 83.2121 57.0833 83.5644 56.8864 84.0227C56.6894 84.4773 56.5909 85.0152 56.5909 85.6364C56.5909 86.2727 56.6875 86.822 56.8807 87.2841C57.0739 87.7462 57.3466 88.1042 57.6989 88.358C58.0549 88.6117 58.4735 88.7386 58.9545 88.7386C59.2765 88.7386 59.5682 88.6799 59.8295 88.5625C60.0947 88.4413 60.3163 88.2689 60.4943 88.0455C60.6761 87.822 60.803 87.553 60.875 87.2386H62.5284C62.4678 87.803 62.2841 88.3068 61.9773 88.75C61.6705 89.1932 61.2595 89.5417 60.7443 89.7955C60.233 90.0492 59.6326 90.1761 58.9432 90.1761ZM64.3452 90V81.2727H65.9872V82.6591H66.0781C66.2372 82.1894 66.5175 81.8201 66.919 81.5511C67.3243 81.2784 67.7827 81.142 68.294 81.142C68.4001 81.142 68.5251 81.1458 68.669 81.1534C68.8168 81.161 68.9323 81.1705 69.0156 81.1818V82.8068C68.9474 82.7879 68.8262 82.767 68.652 82.7443C68.4777 82.7178 68.3035 82.7045 68.1293 82.7045C67.7277 82.7045 67.3698 82.7898 67.0554 82.9602C66.7448 83.1269 66.4986 83.3598 66.3168 83.6591C66.1349 83.9545 66.044 84.2917 66.044 84.6705V90H64.3452ZM70.4858 90V81.2727H72.1847V90H70.4858ZM71.3438 79.9261C71.0483 79.9261 70.7945 79.8277 70.5824 79.6307C70.3741 79.4299 70.2699 79.1913 70.2699 78.9148C70.2699 78.6345 70.3741 78.3958 70.5824 78.1989C70.7945 77.9981 71.0483 77.8977 71.3438 77.8977C71.6392 77.8977 71.8911 77.9981 72.0994 78.1989C72.3116 78.3958 72.4176 78.6345 72.4176 78.9148C72.4176 79.1913 72.3116 79.4299 72.0994 79.6307C71.8911 79.8277 71.6392 79.9261 71.3438 79.9261ZM74.4702 93.2727V81.2727H76.1293V82.6875H76.2713C76.3698 82.5057 76.5118 82.2955 76.6974 82.0568C76.883 81.8182 77.1406 81.6098 77.4702 81.4318C77.7997 81.25 78.2353 81.1591 78.777 81.1591C79.4815 81.1591 80.1103 81.3371 80.6634 81.6932C81.2164 82.0492 81.6501 82.5625 81.9645 83.233C82.2827 83.9034 82.4418 84.7102 82.4418 85.6534C82.4418 86.5966 82.2846 87.4053 81.9702 88.0795C81.6558 88.75 81.224 89.267 80.6747 89.6307C80.1255 89.9905 79.4986 90.1705 78.794 90.1705C78.2637 90.1705 77.83 90.0814 77.4929 89.9034C77.1596 89.7254 76.8982 89.517 76.7088 89.2784C76.5194 89.0398 76.3736 88.8277 76.2713 88.642H76.169V93.2727H74.4702ZM76.1349 85.6364C76.1349 86.25 76.224 86.7879 76.402 87.25C76.58 87.7121 76.8376 88.0739 77.1747 88.3352C77.5118 88.5928 77.9247 88.7216 78.4134 88.7216C78.9209 88.7216 79.3452 88.5871 79.6861 88.3182C80.027 88.0455 80.2846 87.6761 80.4588 87.2102C80.6368 86.7443 80.7259 86.2197 80.7259 85.6364C80.7259 85.0606 80.6387 84.5436 80.4645 84.0852C80.294 83.6269 80.0365 83.2652 79.6918 83C79.3509 82.7348 78.9247 82.6023 78.4134 82.6023C77.9209 82.6023 77.5043 82.7292 77.1634 82.983C76.8262 83.2367 76.5705 83.5909 76.3963 84.0455C76.2221 84.5 76.1349 85.0303 76.1349 85.6364ZM88.419 81.2727V82.6364H83.652V81.2727H88.419ZM84.9304 79.1818H86.6293V87.4375C86.6293 87.767 86.6785 88.0152 86.777 88.1818C86.8755 88.3447 87.0024 88.4564 87.1577 88.517C87.3168 88.5739 87.4891 88.6023 87.6747 88.6023C87.8111 88.6023 87.9304 88.5928 88.0327 88.5739C88.1349 88.5549 88.2145 88.5398 88.2713 88.5284L88.5781 89.9318C88.4796 89.9697 88.3395 90.0076 88.1577 90.0455C87.9759 90.0871 87.7486 90.1098 87.4759 90.1136C87.0289 90.1212 86.6122 90.0417 86.2259 89.875C85.8395 89.7083 85.527 89.4508 85.2884 89.1023C85.0497 88.7538 84.9304 88.3163 84.9304 87.7898V79.1818Z" fill="white"/>
<defs>
<clipPath id="clip0_2862_213">
<rect width="70" height="70" fill="white" transform="translate(15 5)"/>
</clipPath>
</defs>
</svg>
