<svg width="100" height="100" viewBox="0 0 100 100" fill="none" xmlns="http://www.w3.org/2000/svg">
<g clip-path="url(#clip0_2862_253)">
<path d="M54.4533 6.2882C35.2849 3.82945 17.747 17.3745 15.2883 36.5457C12.8295 55.714 26.3716 73.249 45.5428 75.7107C64.7141 78.1694 82.2549 64.6245 84.7078 45.4532C87.1695 26.2849 73.6274 8.74987 54.4533 6.2882ZM61.6603 28.1195C61.0109 28.128 60.3903 28.3896 59.9308 28.8486L46.9428 41.8365L46.0474 40.9411L44.172 39.0657C56.9733 26.3024 59.2803 26.1799 61.6603 28.1195ZM47.4766 42.2974L60.4266 29.3474C60.5963 29.1694 60.8006 29.0278 61.0269 28.9315C61.2532 28.8351 61.4968 28.7859 61.7428 28.7869C61.9887 28.7879 62.2319 28.8391 62.4574 28.9373C62.6829 29.0355 62.886 29.1787 63.0543 29.3581C63.2226 29.5375 63.3525 29.7494 63.4361 29.9807C63.5196 30.212 63.5552 30.458 63.5404 30.7035C63.5257 30.949 63.4611 31.1889 63.3504 31.4086C63.2398 31.6283 63.0855 31.8231 62.897 31.9811L49.1916 44.0124L47.4766 42.2974ZM48.4391 44.3215L45.2308 45.0157C45.1924 45.0243 45.1523 45.0198 45.1169 45.0029C45.0814 44.986 45.0527 44.9576 45.0353 44.9224C45.0158 44.8887 45.0081 44.8495 45.0134 44.8109C45.0187 44.7723 45.0367 44.7366 45.0645 44.7094L46.9458 42.8282L48.4391 44.3215ZM40.2637 42.9828L43.682 39.5645L46.2458 42.1253L40.4737 43.3678C40.4256 43.3803 40.3746 43.3758 40.3295 43.355C40.2843 43.3343 40.2477 43.2986 40.2258 43.254C40.1986 43.2118 40.1875 43.1611 40.1944 43.1114C40.2014 43.0616 40.2259 43.016 40.2637 42.9828ZM29.6295 60.652C29.6004 60.6494 29.572 60.6411 29.5461 60.6275C29.5201 60.6139 29.4972 60.5953 29.4784 60.5728C29.4597 60.5503 29.4457 60.5243 29.4371 60.4964C29.4284 60.4684 29.4254 60.439 29.4283 60.4099C29.4338 60.3592 29.4564 60.3118 29.4924 60.2757H29.4983L32.2574 57.5165L35.8216 61.0807L29.6295 60.652ZM36.7024 56.9886C36.5702 57.0569 36.4647 57.1676 36.4028 57.303C36.341 57.4384 36.3263 57.5906 36.3612 57.7353L36.9533 60.2582C36.9724 60.3359 36.9654 60.4178 36.9334 60.4912C36.9013 60.5645 36.846 60.6253 36.776 60.6641C36.706 60.703 36.6252 60.7177 36.546 60.706C36.4668 60.6943 36.3936 60.6568 36.3378 60.5994H36.3291L33.6049 57.8753L32.7474 57.0149L43.7199 46.054L49.0283 44.9078L51.5774 47.4569C47.917 50.6711 42.912 53.8765 36.7024 56.9886ZM52.0995 46.9903H52.0937L49.6466 44.5432L63.352 32.512C63.4788 32.3993 63.595 32.2753 63.6991 32.1415C63.2674 36.0645 57.7812 41.6061 52.0995 46.9903ZM62.7658 28.1486L62.757 28.1428C61.7927 27.1739 61.2388 25.8706 61.2106 24.5039C61.1823 23.1372 61.6818 21.8121 62.6053 20.8042C63.5287 19.7963 64.8051 19.1829 66.1691 19.0917C67.533 19.0005 68.8797 19.4384 69.9291 20.3145L65.2333 25.019C65.2007 25.0513 65.1749 25.0897 65.1573 25.132C65.1396 25.1743 65.1306 25.2197 65.1306 25.2655C65.1306 25.3113 65.1396 25.3567 65.1573 25.399C65.1749 25.4413 65.2007 25.4797 65.2333 25.512L68.8703 29.149C67.8762 29.6425 66.7522 29.8114 65.6569 29.6319C64.5617 29.4524 63.5504 28.9336 62.7658 28.1486ZM70.2849 28.1486C70.0437 28.3868 69.7789 28.5999 69.4945 28.7845L65.9712 25.264L70.4424 20.7928C72.3703 22.8928 72.3003 26.1361 70.2849 28.1486ZM69.9933 23.6453C69.9231 23.6961 69.8706 23.7675 69.8429 23.8496C69.8152 23.9316 69.8137 24.0203 69.8387 24.1032C69.9425 24.3135 69.9832 24.5494 69.9558 24.7823C69.9283 25.0153 69.834 25.2353 69.6841 25.4157C69.6507 25.4578 69.6259 25.5061 69.6112 25.5578C69.5965 25.6095 69.5921 25.6635 69.5983 25.7169C69.6046 25.7703 69.6213 25.8219 69.6475 25.8688C69.6737 25.9157 69.709 25.957 69.7512 25.9903C69.8212 26.0452 69.9072 26.0759 69.9962 26.0778C70.0552 26.0773 70.1134 26.064 70.1668 26.0388C70.2201 26.0136 70.2674 25.9772 70.3053 25.932C70.5559 25.631 70.7133 25.2635 70.7583 24.8745C70.8034 24.4855 70.7342 24.0918 70.5591 23.7415C70.5286 23.6977 70.4896 23.6604 70.4445 23.6318C70.3994 23.6031 70.349 23.5838 70.2963 23.5748C70.2437 23.5659 70.1898 23.5675 70.1377 23.5796C70.0857 23.5917 70.0366 23.614 69.9933 23.6453Z" fill="white"/>
</g>
<path d="M17.2784 91V79.3636H21.4261C22.3314 79.3636 23.0814 79.5284 23.6761 79.858C24.2708 80.1875 24.7159 80.6383 25.0114 81.2102C25.3068 81.7784 25.4545 82.4186 25.4545 83.1307C25.4545 83.8466 25.3049 84.4905 25.0057 85.0625C24.7102 85.6307 24.2633 86.0814 23.6648 86.4148C23.0701 86.7443 22.322 86.9091 21.4205 86.9091H18.5682V85.4205H21.2614C21.8333 85.4205 22.2973 85.322 22.6534 85.125C23.0095 84.9242 23.2708 84.6515 23.4375 84.3068C23.6042 83.9621 23.6875 83.5701 23.6875 83.1307C23.6875 82.6913 23.6042 82.3011 23.4375 81.9602C23.2708 81.6193 23.0076 81.3523 22.6477 81.1591C22.2917 80.9659 21.822 80.8693 21.2386 80.8693H19.0341V91H17.2784ZM30.9432 91.1761C30.125 91.1761 29.411 90.9886 28.8011 90.6136C28.1913 90.2386 27.7178 89.714 27.3807 89.0398C27.0436 88.3655 26.875 87.5777 26.875 86.6761C26.875 85.7708 27.0436 84.9792 27.3807 84.3011C27.7178 83.6231 28.1913 83.0966 28.8011 82.7216C29.411 82.3466 30.125 82.1591 30.9432 82.1591C31.7614 82.1591 32.4754 82.3466 33.0852 82.7216C33.6951 83.0966 34.1686 83.6231 34.5057 84.3011C34.8428 84.9792 35.0114 85.7708 35.0114 86.6761C35.0114 87.5777 34.8428 88.3655 34.5057 89.0398C34.1686 89.714 33.6951 90.2386 33.0852 90.6136C32.4754 90.9886 31.7614 91.1761 30.9432 91.1761ZM30.9489 89.75C31.4792 89.75 31.9186 89.6098 32.267 89.3295C32.6155 89.0492 32.8731 88.6761 33.0398 88.2102C33.2102 87.7443 33.2955 87.2311 33.2955 86.6705C33.2955 86.1136 33.2102 85.6023 33.0398 85.1364C32.8731 84.6667 32.6155 84.2898 32.267 84.0057C31.9186 83.7216 31.4792 83.5795 30.9489 83.5795C30.4148 83.5795 29.9716 83.7216 29.6193 84.0057C29.2708 84.2898 29.0114 84.6667 28.8409 85.1364C28.6742 85.6023 28.5909 86.1136 28.5909 86.6705C28.5909 87.2311 28.6742 87.7443 28.8409 88.2102C29.0114 88.6761 29.2708 89.0492 29.6193 89.3295C29.9716 89.6098 30.4148 89.75 30.9489 89.75ZM43.4474 84.4034L41.9077 84.6761C41.8433 84.4792 41.741 84.2917 41.6009 84.1136C41.4645 83.9356 41.2789 83.7898 41.044 83.6761C40.8092 83.5625 40.5156 83.5057 40.1634 83.5057C39.6823 83.5057 39.2808 83.6136 38.9588 83.8295C38.6368 84.0417 38.4759 84.3163 38.4759 84.6534C38.4759 84.9451 38.5838 85.1799 38.7997 85.358C39.0156 85.536 39.3641 85.6818 39.8452 85.7955L41.2315 86.1136C42.0346 86.2992 42.633 86.5852 43.027 86.9716C43.4209 87.358 43.6179 87.8598 43.6179 88.4773C43.6179 89 43.4664 89.4659 43.1634 89.875C42.8641 90.2803 42.4455 90.5985 41.9077 90.8295C41.3736 91.0606 40.7543 91.1761 40.0497 91.1761C39.0724 91.1761 38.2751 90.9678 37.6577 90.5511C37.0402 90.1307 36.6615 89.5341 36.5213 88.7614L38.1634 88.5114C38.2656 88.9394 38.4759 89.2633 38.794 89.483C39.1122 89.6989 39.527 89.8068 40.0384 89.8068C40.5952 89.8068 41.0402 89.6913 41.3736 89.4602C41.7069 89.2254 41.8736 88.9394 41.8736 88.6023C41.8736 88.3295 41.7713 88.1004 41.5668 87.9148C41.366 87.7292 41.0573 87.589 40.6406 87.4943L39.1634 87.1705C38.349 86.9848 37.7467 86.6894 37.3565 86.2841C36.9702 85.8788 36.777 85.3655 36.777 84.7443C36.777 84.2292 36.9209 83.7784 37.2088 83.392C37.4967 83.0057 37.8944 82.7045 38.402 82.4886C38.9096 82.2689 39.491 82.1591 40.1463 82.1591C41.0895 82.1591 41.8319 82.3636 42.3736 82.7727C42.9152 83.178 43.2732 83.7216 43.4474 84.4034ZM49.5597 82.2727V83.6364H44.7926V82.2727H49.5597ZM46.071 80.1818H47.7699V88.4375C47.7699 88.767 47.8191 89.0152 47.9176 89.1818C48.0161 89.3447 48.143 89.4564 48.2983 89.517C48.4574 89.5739 48.6297 89.6023 48.8153 89.6023C48.9517 89.6023 49.071 89.5928 49.1733 89.5739C49.2756 89.5549 49.3551 89.5398 49.4119 89.5284L49.7188 90.9318C49.6203 90.9697 49.4801 91.0076 49.2983 91.0455C49.1165 91.0871 48.8892 91.1098 48.6165 91.1136C48.1695 91.1212 47.7528 91.0417 47.3665 90.875C46.9801 90.7083 46.6676 90.4508 46.429 90.1023C46.1903 89.7538 46.071 89.3163 46.071 88.7898V80.1818ZM51.4389 91V82.2727H53.0696V83.6932H53.1776C53.3594 83.2121 53.6567 82.8371 54.0696 82.5682C54.4825 82.2955 54.9768 82.1591 55.5526 82.1591C56.1359 82.1591 56.6245 82.2955 57.0185 82.5682C57.4162 82.8409 57.7098 83.2159 57.8991 83.6932H57.9901C58.1984 83.2273 58.5298 82.8561 58.9844 82.5795C59.4389 82.2992 59.9806 82.1591 60.6094 82.1591C61.401 82.1591 62.0469 82.4072 62.5469 82.9034C63.0507 83.3996 63.3026 84.1477 63.3026 85.1477V91H61.6037V85.3068C61.6037 84.7159 61.4427 84.2879 61.1207 84.0227C60.7988 83.7576 60.4143 83.625 59.9673 83.625C59.4143 83.625 58.9844 83.7955 58.6776 84.1364C58.3707 84.4735 58.2173 84.9072 58.2173 85.4375V91H56.5241V85.1989C56.5241 84.7254 56.3764 84.3447 56.081 84.0568C55.7855 83.7689 55.401 83.625 54.9276 83.625C54.6056 83.625 54.3082 83.7102 54.0355 83.8807C53.7666 84.0473 53.5488 84.2803 53.3821 84.5795C53.2192 84.8788 53.1378 85.2254 53.1378 85.6193V91H51.4389ZM68.1193 91.1932C67.5663 91.1932 67.0663 91.0909 66.6193 90.8864C66.1723 90.678 65.8182 90.3769 65.5568 89.983C65.2992 89.589 65.1705 89.1061 65.1705 88.5341C65.1705 88.0417 65.2652 87.6364 65.4545 87.3182C65.6439 87 65.8996 86.7481 66.2216 86.5625C66.5436 86.3769 66.9034 86.2367 67.3011 86.142C67.6989 86.0473 68.1042 85.9754 68.517 85.9261C69.0398 85.8655 69.464 85.8163 69.7898 85.7784C70.1155 85.7367 70.3523 85.6705 70.5 85.5795C70.6477 85.4886 70.7216 85.3409 70.7216 85.1364V85.0966C70.7216 84.6004 70.5814 84.2159 70.3011 83.9432C70.0246 83.6705 69.6117 83.5341 69.0625 83.5341C68.4905 83.5341 68.0398 83.661 67.7102 83.9148C67.3845 84.1648 67.1591 84.4432 67.0341 84.75L65.4375 84.3864C65.6269 83.8561 65.9034 83.428 66.267 83.1023C66.6345 82.7727 67.0568 82.5341 67.5341 82.3864C68.0114 82.2348 68.5133 82.1591 69.0398 82.1591C69.3883 82.1591 69.7576 82.2008 70.1477 82.2841C70.5417 82.3636 70.9091 82.5114 71.25 82.7273C71.5947 82.9432 71.8769 83.2519 72.0966 83.6534C72.3163 84.0511 72.4261 84.5682 72.4261 85.2045V91H70.767V89.8068H70.6989C70.589 90.0265 70.4242 90.2424 70.2045 90.4545C69.9848 90.6667 69.7027 90.8428 69.358 90.983C69.0133 91.1231 68.6004 91.1932 68.1193 91.1932ZM68.4886 89.8295C68.9583 89.8295 69.3598 89.7367 69.6932 89.5511C70.0303 89.3655 70.286 89.1231 70.4602 88.8239C70.6383 88.5208 70.7273 88.197 70.7273 87.8523V86.7273C70.6667 86.7879 70.5492 86.8447 70.375 86.8977C70.2045 86.947 70.0095 86.9905 69.7898 87.0284C69.5701 87.0625 69.3561 87.0947 69.1477 87.125C68.9394 87.1515 68.7652 87.1742 68.625 87.1932C68.2955 87.2348 67.9943 87.3049 67.7216 87.4034C67.4527 87.5019 67.2367 87.6439 67.0739 87.8295C66.9148 88.0114 66.8352 88.2538 66.8352 88.5568C66.8352 88.9773 66.9905 89.2955 67.3011 89.5114C67.6117 89.7235 68.0076 89.8295 68.4886 89.8295ZM76.3878 85.8182V91H74.6889V82.2727H76.3196V83.6932H76.4276C76.6283 83.2311 76.9427 82.8598 77.3707 82.5795C77.8026 82.2992 78.3461 82.1591 79.0014 82.1591C79.5961 82.1591 80.117 82.2841 80.5639 82.5341C81.0109 82.7803 81.3575 83.1477 81.6037 83.6364C81.8499 84.125 81.973 84.7292 81.973 85.4489V91H80.2741V85.6534C80.2741 85.0208 80.1094 84.5265 79.7798 84.1705C79.4503 83.8106 78.9976 83.6307 78.4219 83.6307C78.0279 83.6307 77.6776 83.7159 77.3707 83.8864C77.0677 84.0568 76.8272 84.3068 76.6491 84.6364C76.4749 84.9621 76.3878 85.3561 76.3878 85.8182Z" fill="white"/>
<defs>
<clipPath id="clip0_2862_253">
<rect width="70" height="70" fill="white" transform="translate(15 6)"/>
</clipPath>
</defs>
</svg>
