<svg width="100" height="100" viewBox="0 0 100 100" fill="none" xmlns="http://www.w3.org/2000/svg">
<g clip-path="url(#clip0_2862_222)">
<mask id="mask0_2862_222" style="mask-type:luminance" maskUnits="userSpaceOnUse" x="15" y="5" width="70" height="70">
<path d="M15 5H85V75H15V5Z" fill="white"/>
</mask>
<g mask="url(#mask0_2862_222)">
<path d="M85 39.0928C85 34.4553 79.1929 30.0598 70.2883 27.3357C72.3446 18.2619 71.4317 11.0403 67.4067 8.72734C66.4314 8.18111 65.3276 7.90616 64.21 7.93109V11.1103C64.8662 11.1103 65.3942 11.2415 65.8375 11.4836C67.7771 12.5978 68.62 16.8328 67.9638 22.284C67.8063 23.6257 67.5496 25.0373 67.2346 26.4782C64.2527 25.7596 61.2263 25.2403 58.1754 24.9236C56.3579 22.4161 54.375 20.0327 52.24 17.7894C56.8921 13.4669 61.2583 11.0986 64.2275 11.0986V7.9165C60.3017 7.9165 55.1654 10.7136 49.9708 15.564C44.7792 10.7457 39.64 7.97484 35.7171 7.97484V11.154C38.6717 11.154 43.0525 13.5107 47.7046 17.804C45.7067 19.904 43.7088 22.284 41.81 24.9236C38.7528 25.2368 35.721 25.7611 32.7362 26.4928C32.4208 25.1271 32.1726 23.7469 31.9925 22.3569C31.3217 16.9028 32.15 12.6678 34.0779 11.5419C34.5037 11.2853 35.0608 11.1686 35.7171 11.1686V7.98942C34.5213 7.98942 33.4333 8.24609 32.4942 8.78567C28.4838 11.0986 27.5854 18.3028 29.6533 27.3503C20.7779 30.0919 15 34.4698 15 39.0928C15 43.7303 20.8071 48.1257 29.7117 50.8469C27.6554 59.9236 28.5683 67.1453 32.5933 69.4553C33.5208 69.9978 34.6058 70.2544 35.8017 70.2544C39.7275 70.2544 44.8638 67.4573 50.0583 62.6069C55.25 67.4282 60.3862 70.1961 64.3121 70.1961C65.4382 70.2199 66.5504 69.9441 67.535 69.3969C71.5454 67.0869 72.4438 59.8828 70.3758 50.8353C79.2221 48.1111 85 43.7157 85 39.0928ZM66.4208 29.5757C65.8666 31.4828 65.2243 33.3631 64.4958 35.2107C63.3034 32.8912 61.9941 30.6337 60.5729 28.4469C62.6 28.7473 64.5542 29.1178 66.4238 29.5757M59.8904 44.7715C58.8221 46.6366 57.6748 48.4553 56.4517 50.2228C52.1707 50.6001 47.8651 50.605 43.5833 50.2373C41.1273 46.7291 38.9795 43.015 37.1637 39.1365C38.9767 35.2489 41.1154 31.5217 43.5571 27.9948C47.837 27.6167 52.1416 27.6109 56.4225 27.9773C57.6067 29.6748 58.7646 31.489 59.8758 33.4023C60.9608 35.269 61.9467 37.1648 62.845 39.0782C61.9367 41.0147 60.951 42.914 59.8904 44.7715ZM64.4958 42.9165C65.2658 44.8298 65.925 46.7403 66.4646 48.5953C64.5979 49.0532 62.6263 49.4382 60.5875 49.7357C62.0028 47.529 63.3072 45.2531 64.4958 42.9165ZM50.0292 58.1415C48.7021 56.7707 47.375 55.2453 46.0625 53.574C47.3458 53.6323 48.6583 53.6761 49.9854 53.6761C51.3271 53.6761 52.6542 53.6469 53.9521 53.574C52.6688 55.2453 51.3417 56.7707 50.0292 58.1415ZM39.4125 49.7357C37.4459 49.4507 35.4936 49.075 33.5617 48.6098C34.0896 46.7694 34.7458 44.8707 35.4867 42.9748C36.0729 44.1123 36.6883 45.2557 37.3592 46.399C38.03 47.5394 38.7125 48.6536 39.4125 49.7357ZM49.9562 20.044C51.2833 21.4148 52.6104 22.9403 53.9229 24.6115C52.6396 24.5532 51.3271 24.5094 50 24.5094C48.6583 24.5094 47.3313 24.5386 46.0333 24.6115C47.3167 22.9403 48.6437 21.4148 49.9562 20.044ZM39.3979 28.4498C37.983 30.6517 36.6786 32.9227 35.4896 35.2544C34.7406 33.3949 34.0836 31.4997 33.5208 29.5757C35.3875 29.1323 37.3592 28.7473 39.3979 28.4498ZM26.4858 46.3115C21.4342 44.159 18.1675 41.3328 18.1675 39.0928C18.1675 36.8528 21.4342 34.0119 26.4858 31.874C27.7108 31.3461 29.0525 30.8736 30.4379 30.4332C31.2517 33.2273 32.3221 36.1382 33.6463 39.1219C32.3961 41.9283 31.3388 44.8167 30.4817 47.7669C29.1267 47.3474 27.7932 46.8617 26.4858 46.3115ZM34.1625 66.699C32.2229 65.5907 31.38 61.3498 32.0363 55.9015C32.1938 54.5598 32.4504 53.1453 32.7654 51.7044C35.5596 52.3898 38.6133 52.9178 41.8246 53.2619C43.6422 55.7693 45.6251 58.1527 47.76 60.3961C43.1079 64.7186 38.7417 67.0869 35.7725 67.0869C35.2123 67.093 34.6593 66.9608 34.1625 66.7019M68.0075 55.8315C68.6783 61.2828 67.85 65.5207 65.9221 66.6465C65.4963 66.9032 64.9392 67.0169 64.2829 67.0169C61.3283 67.0169 56.9475 64.6632 52.2954 60.3669C54.4215 58.1329 56.391 55.7551 58.19 53.2503C61.2472 52.9371 64.279 52.4128 67.2638 51.6811C67.5933 53.1219 67.8471 54.5044 68.0075 55.8315ZM73.4996 46.3144C72.2746 46.8423 70.9329 47.3148 69.5475 47.7553C68.6753 44.7899 67.6034 41.887 66.3392 39.0665C67.6517 36.1003 68.7046 33.204 69.5038 30.4215C70.863 30.8424 72.2013 31.3281 73.5142 31.8769C78.5658 34.0294 81.8325 36.8557 81.8325 39.0957C81.8179 41.3357 78.5513 44.1765 73.4996 46.3144Z" fill="white"/>
<path d="M49.9865 45.6146C51.7162 45.6146 53.375 44.9275 54.598 43.7045C55.8211 42.4814 56.5082 40.8226 56.5082 39.093C56.5082 37.3633 55.8211 35.7045 54.598 34.4814C53.375 33.2584 51.7162 32.5713 49.9865 32.5713C48.2569 32.5713 46.598 33.2584 45.375 34.4814C44.1519 35.7045 43.4648 37.3633 43.4648 39.093C43.4648 40.8226 44.1519 42.4814 45.375 43.7045C46.598 44.9275 48.2569 45.6146 49.9865 45.6146Z" fill="white"/>
</g>
</g>
<path d="M29.2784 90V78.3636H33.4261C34.3277 78.3636 35.0758 78.5189 35.6705 78.8295C36.2689 79.1402 36.7159 79.5701 37.0114 80.1193C37.3068 80.6648 37.4545 81.2955 37.4545 82.0114C37.4545 82.7235 37.3049 83.3504 37.0057 83.892C36.7102 84.4299 36.2633 84.8485 35.6648 85.1477C35.0701 85.447 34.322 85.5966 33.4205 85.5966H30.2784V84.0852H33.2614C33.8295 84.0852 34.2917 84.0038 34.6477 83.8409C35.0076 83.678 35.2708 83.4413 35.4375 83.1307C35.6042 82.8201 35.6875 82.447 35.6875 82.0114C35.6875 81.572 35.6023 81.1913 35.4318 80.8693C35.2652 80.5473 35.0019 80.3011 34.642 80.1307C34.286 79.9564 33.8182 79.8693 33.2386 79.8693H31.0341V90H29.2784ZM35.0227 84.75L37.8977 90H35.8977L33.0795 84.75H35.0227ZM43.1065 90.1761C42.2467 90.1761 41.5062 89.9924 40.8849 89.625C40.2675 89.2538 39.7902 88.733 39.4531 88.0625C39.1198 87.3883 38.9531 86.5985 38.9531 85.6932C38.9531 84.7992 39.1198 84.0114 39.4531 83.3295C39.7902 82.6477 40.2599 82.1155 40.8622 81.733C41.4683 81.3504 42.1766 81.1591 42.9872 81.1591C43.4796 81.1591 43.9569 81.2405 44.419 81.4034C44.8812 81.5663 45.2959 81.822 45.6634 82.1705C46.0308 82.5189 46.3205 82.9716 46.5327 83.5284C46.7448 84.0814 46.8509 84.7538 46.8509 85.5455V86.1477H39.9134V84.875H45.1861C45.1861 84.428 45.0952 84.0322 44.9134 83.6875C44.7315 83.339 44.4759 83.0644 44.1463 82.8636C43.8205 82.6629 43.438 82.5625 42.9986 82.5625C42.5213 82.5625 42.1046 82.6799 41.7486 82.9148C41.3963 83.1458 41.1236 83.4489 40.9304 83.8239C40.741 84.1951 40.6463 84.5985 40.6463 85.0341V86.0284C40.6463 86.6117 40.7486 87.108 40.9531 87.517C41.1615 87.9261 41.4512 88.2386 41.8224 88.4545C42.1937 88.6667 42.6274 88.7727 43.1236 88.7727C43.4455 88.7727 43.7391 88.7273 44.0043 88.6364C44.2694 88.5417 44.4986 88.4015 44.6918 88.2159C44.8849 88.0303 45.0327 87.8011 45.1349 87.5284L46.7429 87.8182C46.6141 88.2917 46.383 88.7064 46.0497 89.0625C45.7202 89.4148 45.3054 89.6894 44.8054 89.8864C44.3092 90.0795 43.7429 90.1761 43.1065 90.1761ZM51.2756 90.1932C50.7225 90.1932 50.2225 90.0909 49.7756 89.8864C49.3286 89.678 48.9744 89.3769 48.7131 88.983C48.4555 88.589 48.3267 88.1061 48.3267 87.5341C48.3267 87.0417 48.4214 86.6364 48.6108 86.3182C48.8002 86 49.0559 85.7481 49.3778 85.5625C49.6998 85.3769 50.0597 85.2367 50.4574 85.142C50.8551 85.0473 51.2604 84.9754 51.6733 84.9261C52.196 84.8655 52.6203 84.8163 52.946 84.7784C53.2718 84.7367 53.5085 84.6705 53.6562 84.5795C53.804 84.4886 53.8778 84.3409 53.8778 84.1364V84.0966C53.8778 83.6004 53.7377 83.2159 53.4574 82.9432C53.1809 82.6705 52.768 82.5341 52.2188 82.5341C51.6468 82.5341 51.196 82.661 50.8665 82.9148C50.5407 83.1648 50.3153 83.4432 50.1903 83.75L48.5938 83.3864C48.7831 82.8561 49.0597 82.428 49.4233 82.1023C49.7907 81.7727 50.2131 81.5341 50.6903 81.3864C51.1676 81.2348 51.6695 81.1591 52.196 81.1591C52.5445 81.1591 52.9138 81.2008 53.304 81.2841C53.6979 81.3636 54.0653 81.5114 54.4062 81.7273C54.7509 81.9432 55.0331 82.2519 55.2528 82.6534C55.4725 83.0511 55.5824 83.5682 55.5824 84.2045V90H53.9233V88.8068H53.8551C53.7453 89.0265 53.5805 89.2424 53.3608 89.4545C53.1411 89.6667 52.8589 89.8428 52.5142 89.983C52.1695 90.1231 51.7566 90.1932 51.2756 90.1932ZM51.6449 88.8295C52.1146 88.8295 52.5161 88.7367 52.8494 88.5511C53.1866 88.3655 53.4422 88.1231 53.6165 87.8239C53.7945 87.5208 53.8835 87.197 53.8835 86.8523V85.7273C53.8229 85.7879 53.7055 85.8447 53.5312 85.8977C53.3608 85.947 53.1657 85.9905 52.946 86.0284C52.7263 86.0625 52.5123 86.0947 52.304 86.125C52.0956 86.1515 51.9214 86.1742 51.7812 86.1932C51.4517 86.2348 51.1506 86.3049 50.8778 86.4034C50.6089 86.5019 50.393 86.6439 50.2301 86.8295C50.071 87.0114 49.9915 87.2538 49.9915 87.5568C49.9915 87.9773 50.1468 88.2955 50.4574 88.5114C50.768 88.7235 51.1638 88.8295 51.6449 88.8295ZM61.5213 90.1761C60.6766 90.1761 59.9493 89.9848 59.3395 89.6023C58.7334 89.2159 58.2675 88.6837 57.9418 88.0057C57.616 87.3277 57.4531 86.5511 57.4531 85.6761C57.4531 84.7898 57.6198 84.0076 57.9531 83.3295C58.2865 82.6477 58.7562 82.1155 59.3622 81.733C59.9683 81.3504 60.6823 81.1591 61.5043 81.1591C62.1671 81.1591 62.758 81.2822 63.277 81.5284C63.7959 81.7708 64.2145 82.1117 64.5327 82.5511C64.8546 82.9905 65.0459 83.5038 65.1065 84.0909H63.4531C63.3622 83.6818 63.1539 83.3295 62.8281 83.0341C62.5062 82.7386 62.0743 82.5909 61.5327 82.5909C61.0592 82.5909 60.6444 82.7159 60.2884 82.9659C59.9361 83.2121 59.6615 83.5644 59.4645 84.0227C59.2675 84.4773 59.169 85.0152 59.169 85.6364C59.169 86.2727 59.2656 86.822 59.4588 87.2841C59.652 87.7462 59.9247 88.1042 60.277 88.358C60.633 88.6117 61.0516 88.7386 61.5327 88.7386C61.8546 88.7386 62.1463 88.6799 62.4077 88.5625C62.6728 88.4413 62.8944 88.2689 63.0724 88.0455C63.2543 87.822 63.3812 87.553 63.4531 87.2386H65.1065C65.0459 87.803 64.8622 88.3068 64.5554 88.75C64.2486 89.1932 63.8376 89.5417 63.3224 89.7955C62.8111 90.0492 62.2107 90.1761 61.5213 90.1761ZM70.9972 81.2727V82.6364H66.2301V81.2727H70.9972ZM67.5085 79.1818H69.2074V87.4375C69.2074 87.767 69.2566 88.0152 69.3551 88.1818C69.4536 88.3447 69.5805 88.4564 69.7358 88.517C69.8949 88.5739 70.0672 88.6023 70.2528 88.6023C70.3892 88.6023 70.5085 88.5928 70.6108 88.5739C70.7131 88.5549 70.7926 88.5398 70.8494 88.5284L71.1562 89.9318C71.0578 89.9697 70.9176 90.0076 70.7358 90.0455C70.554 90.0871 70.3267 90.1098 70.054 90.1136C69.607 90.1212 69.1903 90.0417 68.804 89.875C68.4176 89.7083 68.1051 89.4508 67.8665 89.1023C67.6278 88.7538 67.5085 88.3163 67.5085 87.7898V79.1818Z" fill="white"/>
<defs>
<clipPath id="clip0_2862_222">
<rect width="70" height="70" fill="white" transform="translate(15 5)"/>
</clipPath>
</defs>
</svg>
