<svg width="100" height="100" viewBox="0 0 100 100" fill="none" xmlns="http://www.w3.org/2000/svg">
<g clip-path="url(#clip0_2862_224)">
<mask id="mask0_2862_224" style="mask-type:luminance" maskUnits="userSpaceOnUse" x="17" y="6" width="70" height="70">
<path d="M17 6H87V76H17V6Z" fill="white"/>
</mask>
<g mask="url(#mask0_2862_224)">
<path d="M65.5049 54.3089C68.0861 54.0406 70.0461 51.7918 69.9586 49.0939C69.915 47.7972 69.3715 46.5675 68.4419 45.6624C67.5123 44.7572 66.2686 44.2467 64.9711 44.2377H64.7903C62.0282 44.3252 59.8903 46.6643 59.9778 49.4527C60.0711 50.8031 60.6049 51.9697 61.407 52.7777C58.3766 58.8064 53.7449 63.2106 46.7945 66.8972C42.0753 69.4172 37.1753 70.3156 32.2782 69.6856C28.2678 69.146 25.1499 67.3464 23.1899 64.3802C20.3403 59.976 20.0749 55.2072 22.4782 50.4414C24.1699 47.026 26.8445 44.506 28.5361 43.2489C28.0773 41.7389 27.6909 40.2079 27.3782 38.661C14.4603 48.1052 15.7991 60.8743 19.7132 66.9002C22.6532 71.3977 28.6207 74.186 35.2153 74.186C37.0156 74.1982 38.8105 73.9865 40.5586 73.556C51.9628 71.3102 60.602 64.4735 65.502 54.3118M81.179 43.1614C74.4095 35.1581 64.4315 30.751 53.0303 30.751H51.6041C51.1979 29.9414 50.5749 29.2605 49.8045 28.7841C49.0341 28.3077 48.1465 28.0547 47.2407 28.0531H47.0599C44.3007 28.1435 42.1599 30.4827 42.2503 33.271C42.3378 35.9689 44.5661 38.1243 47.2378 38.1243H47.4186C48.3595 38.0756 49.2677 37.7632 50.0393 37.2226C50.8109 36.6821 51.4148 35.9353 51.782 35.0677H53.3861C60.1557 35.0677 66.5695 37.0452 72.359 40.9127C76.8128 43.8818 80.0211 47.7464 81.8003 52.4247C83.317 56.1989 83.2295 59.8856 81.6253 63.0356C79.1286 67.8014 74.9432 70.4089 69.419 70.4089C65.8578 70.4089 62.4715 69.3297 60.6895 68.5189C59.4072 69.6628 58.0698 70.7432 56.682 71.7564C60.5116 73.556 64.4315 74.5447 68.1736 74.5447C76.7253 74.5447 83.0486 69.7789 85.4549 65.0131C88.0361 59.7981 87.8582 50.806 81.179 43.1614ZM35.9299 55.8372C36.0174 58.5352 38.2457 60.6935 40.9174 60.6935H41.0953C43.8574 60.606 45.9953 58.2668 45.9078 55.4785C45.8642 54.1817 45.3207 52.9521 44.391 52.047C43.4614 51.1418 42.2178 50.6313 40.9203 50.6222H40.7395C40.5276 50.6082 40.3151 50.638 40.1153 50.7097C36.4636 44.5964 34.9499 37.9435 35.4836 30.7481C35.8395 25.3522 37.6216 20.6768 40.7395 16.8093C43.3236 13.4843 48.3111 11.8656 51.6974 11.7752C61.1386 11.5943 65.1461 23.4652 65.4145 28.231C66.5724 28.4993 68.5324 29.1293 69.8682 29.5785C68.7978 15.0127 59.8932 7.4585 51.3386 7.4585C43.3236 7.4585 35.9299 13.3035 32.9899 21.9368C28.892 33.446 31.5636 44.506 36.5541 53.2297C36.1078 53.8597 35.8395 54.8485 35.9299 55.8372Z" fill="white"/>
</g>
</g>
<path d="M6.11861 90V79.8182H9.74787C10.5367 79.8182 11.1913 79.9541 11.7116 80.2259C12.2353 80.4976 12.6264 80.8738 12.8849 81.3544C13.1435 81.8317 13.2727 82.3835 13.2727 83.0099C13.2727 83.633 13.1418 84.1816 12.88 84.6555C12.6214 85.1262 12.2304 85.4924 11.7067 85.7543C11.1863 86.0161 10.5317 86.147 9.7429 86.147H6.99361V84.8246H9.60369C10.1009 84.8246 10.5052 84.7533 10.8168 84.6108C11.1316 84.4683 11.362 84.2611 11.5078 83.9893C11.6536 83.7176 11.7266 83.3911 11.7266 83.0099C11.7266 82.6255 11.652 82.2924 11.5028 82.0107C11.357 81.7289 11.1267 81.5135 10.8118 81.3643C10.5002 81.2119 10.0909 81.1357 9.58381 81.1357H7.65483V90H6.11861ZM11.1449 85.4062L13.6605 90H11.9105L9.4446 85.4062H11.1449ZM18.2182 90.1541C17.4658 90.1541 16.8179 89.9934 16.2743 89.6719C15.7341 89.3471 15.3165 88.8913 15.0215 88.3047C14.7298 87.7147 14.584 87.0237 14.584 86.2315C14.584 85.4493 14.7298 84.7599 15.0215 84.1634C15.3165 83.5668 15.7275 83.1011 16.2544 82.7663C16.7847 82.4316 17.4045 82.2642 18.1138 82.2642C18.5447 82.2642 18.9623 82.3355 19.3667 82.478C19.771 82.6205 20.1339 82.8442 20.4554 83.1491C20.7769 83.4541 21.0305 83.8501 21.2161 84.3374C21.4017 84.8213 21.4945 85.4096 21.4945 86.1023V86.6293H15.4242V85.5156H20.0378C20.0378 85.1245 19.9583 84.7782 19.7992 84.4766C19.6401 84.1716 19.4164 83.9313 19.128 83.7557C18.843 83.58 18.5082 83.4922 18.1238 83.4922C17.7061 83.4922 17.3416 83.5949 17.03 83.8004C16.7218 84.0026 16.4831 84.2678 16.3141 84.5959C16.1484 84.9207 16.0655 85.2737 16.0655 85.6548V86.5249C16.0655 87.0353 16.155 87.4695 16.334 87.8274C16.5163 88.1854 16.7698 88.4588 17.0946 88.6477C17.4194 88.8333 17.7989 88.9261 18.2331 88.9261C18.5149 88.9261 18.7717 88.8864 19.0037 88.8068C19.2357 88.724 19.4363 88.6013 19.6053 88.4389C19.7743 88.2765 19.9036 88.076 19.9931 87.8374L21.4 88.0909C21.2873 88.5052 21.0852 88.8681 20.7935 89.1797C20.5051 89.4879 20.1422 89.7282 19.7047 89.9006C19.2705 90.0696 18.775 90.1541 18.2182 90.1541ZM26.0025 90.1491C25.386 90.1491 24.8358 89.9917 24.3519 89.6768C23.8713 89.3587 23.4935 88.9062 23.2184 88.3196C22.9466 87.7296 22.8107 87.022 22.8107 86.1967C22.8107 85.3714 22.9483 84.6655 23.2234 84.0788C23.5018 83.4922 23.8829 83.0431 24.3668 82.7315C24.8507 82.42 25.3993 82.2642 26.0124 82.2642C26.4864 82.2642 26.8675 82.3438 27.1559 82.5028C27.4476 82.6586 27.6729 82.8409 27.832 83.0497C27.9944 83.2585 28.1204 83.4425 28.2099 83.6016H28.2994V79.8182H29.7859V90H28.3342V88.8118H28.2099C28.1204 88.9742 27.9911 89.1598 27.8221 89.3686C27.6564 89.5774 27.4277 89.7597 27.136 89.9155C26.8443 90.0713 26.4665 90.1491 26.0025 90.1491ZM26.3306 88.8814C26.7582 88.8814 27.1194 88.7687 27.4144 88.5433C27.7127 88.3146 27.9381 87.9981 28.0906 87.5938C28.2463 87.1894 28.3242 86.7187 28.3242 86.1818C28.3242 85.6515 28.248 85.1875 28.0955 84.7898C27.9431 84.392 27.7193 84.0821 27.4244 83.8601C27.1294 83.638 26.7648 83.527 26.3306 83.527C25.8832 83.527 25.5103 83.643 25.212 83.875C24.9137 84.107 24.6883 84.4235 24.5359 84.8246C24.3867 85.2256 24.3121 85.678 24.3121 86.1818C24.3121 86.6922 24.3884 87.1513 24.5408 87.5589C24.6933 87.9666 24.9187 88.2898 25.217 88.5284C25.5186 88.7637 25.8898 88.8814 26.3306 88.8814ZM36.7449 86.8331V82.3636H38.2363V90H36.7747V88.6776H36.6951C36.5195 89.0852 36.2377 89.425 35.85 89.6967C35.4655 89.9652 34.9866 90.0994 34.4132 90.0994C33.9226 90.0994 33.4885 89.9917 33.1106 89.7763C32.7361 89.5575 32.4411 89.2344 32.2257 88.8068C32.0136 88.3793 31.9075 87.8506 31.9075 87.2209V82.3636H33.394V87.0419C33.394 87.5623 33.5382 87.9766 33.8265 88.2848C34.1149 88.593 34.4894 88.7472 34.9501 88.7472C35.2285 88.7472 35.5053 88.6776 35.7804 88.5384C36.0588 88.3991 36.2891 88.1887 36.4714 87.907C36.657 87.6252 36.7482 87.2673 36.7449 86.8331ZM41.407 82.3636L43.0923 85.3366L44.7926 82.3636H46.4183L44.0369 86.1818L46.4382 90H44.8125L43.0923 87.1463L41.3771 90H39.7464L42.1229 86.1818L39.7763 82.3636H41.407ZM51.2669 81.1406V79.8182H59.1468V81.1406H55.97V90H54.4387V81.1406H51.2669ZM62.878 90.1541C62.1621 90.1541 61.5373 89.9901 61.0037 89.6619C60.4701 89.3338 60.0558 88.8748 59.7608 88.2848C59.4658 87.6948 59.3184 87.0054 59.3184 86.2166C59.3184 85.4245 59.4658 84.7318 59.7608 84.1385C60.0558 83.5452 60.4701 83.0845 61.0037 82.7564C61.5373 82.4283 62.1621 82.2642 62.878 82.2642C63.5939 82.2642 64.2187 82.4283 64.7523 82.7564C65.2859 83.0845 65.7002 83.5452 65.9952 84.1385C66.2902 84.7318 66.4377 85.4245 66.4377 86.2166C66.4377 87.0054 66.2902 87.6948 65.9952 88.2848C65.7002 88.8748 65.2859 89.3338 64.7523 89.6619C64.2187 89.9901 63.5939 90.1541 62.878 90.1541ZM62.883 88.9062C63.347 88.9062 63.7315 88.7836 64.0364 88.5384C64.3413 88.2931 64.5667 87.9666 64.7125 87.5589C64.8617 87.1513 64.9363 86.7022 64.9363 86.2116C64.9363 85.7244 64.8617 85.277 64.7125 84.8693C64.5667 84.4583 64.3413 84.1286 64.0364 83.88C63.7315 83.6314 63.347 83.5071 62.883 83.5071C62.4157 83.5071 62.0279 83.6314 61.7196 83.88C61.4147 84.1286 61.1877 84.4583 61.0385 84.8693C60.8927 85.277 60.8198 85.7244 60.8198 86.2116C60.8198 86.7022 60.8927 87.1513 61.0385 87.5589C61.1877 87.9666 61.4147 88.2931 61.7196 88.5384C62.0279 88.7836 62.4157 88.9062 62.883 88.9062ZM71.3136 90.1541C70.5977 90.1541 69.9729 89.9901 69.4393 89.6619C68.9057 89.3338 68.4914 88.8748 68.1964 88.2848C67.9014 87.6948 67.7539 87.0054 67.7539 86.2166C67.7539 85.4245 67.9014 84.7318 68.1964 84.1385C68.4914 83.5452 68.9057 83.0845 69.4393 82.7564C69.9729 82.4283 70.5977 82.2642 71.3136 82.2642C72.0295 82.2642 72.6542 82.4283 73.1879 82.7564C73.7215 83.0845 74.1358 83.5452 74.4308 84.1385C74.7257 84.7318 74.8732 85.4245 74.8732 86.2166C74.8732 87.0054 74.7257 87.6948 74.4308 88.2848C74.1358 88.8748 73.7215 89.3338 73.1879 89.6619C72.6542 89.9901 72.0295 90.1541 71.3136 90.1541ZM71.3185 88.9062C71.7826 88.9062 72.167 88.7836 72.4719 88.5384C72.7769 88.2931 73.0022 87.9666 73.1481 87.5589C73.2972 87.1513 73.3718 86.7022 73.3718 86.2116C73.3718 85.7244 73.2972 85.277 73.1481 84.8693C73.0022 84.4583 72.7769 84.1286 72.4719 83.88C72.167 83.6314 71.7826 83.5071 71.3185 83.5071C70.8512 83.5071 70.4634 83.6314 70.1552 83.88C69.8503 84.1286 69.6232 84.4583 69.4741 84.8693C69.3282 85.277 69.2553 85.7244 69.2553 86.2116C69.2553 86.7022 69.3282 87.1513 69.4741 87.5589C69.6232 87.9666 69.8503 88.2931 70.1552 88.5384C70.4634 88.7836 70.8512 88.9062 71.3185 88.9062ZM78.019 79.8182V90H76.5325V79.8182H78.019ZM81.386 87.4098L81.3761 85.5952H81.6346L84.6772 82.3636H86.457L82.9869 86.0426H82.7532L81.386 87.4098ZM80.0188 90V79.8182H81.5053V90H80.0188ZM84.8413 90L82.1069 86.3707L83.131 85.3317L86.6658 90H84.8413ZM87.8118 90V82.3636H89.2983V90H87.8118ZM88.5625 81.1854C88.304 81.1854 88.0819 81.0992 87.8963 80.9268C87.714 80.7512 87.6229 80.5424 87.6229 80.3004C87.6229 80.0552 87.714 79.8464 87.8963 79.674C88.0819 79.4983 88.304 79.4105 88.5625 79.4105C88.821 79.4105 89.0414 79.4983 89.2237 79.674C89.4093 79.8464 89.5021 80.0552 89.5021 80.3004C89.5021 80.5424 89.4093 80.7512 89.2237 80.9268C89.0414 81.0992 88.821 81.1854 88.5625 81.1854ZM94.8627 82.3636V83.5568H90.6916V82.3636H94.8627ZM91.8102 80.5341H93.2967V87.7578C93.2967 88.0462 93.3398 88.2633 93.426 88.4091C93.5121 88.5516 93.6232 88.6494 93.7591 88.7024C93.8983 88.7521 94.0491 88.777 94.2115 88.777C94.3308 88.777 94.4352 88.7687 94.5247 88.7521C94.6142 88.7356 94.6838 88.7223 94.7335 88.7124L95.002 89.9403C94.9158 89.9735 94.7931 90.0066 94.6341 90.0398C94.475 90.0762 94.2761 90.0961 94.0375 90.0994C93.6464 90.1061 93.2818 90.0365 92.9437 89.8906C92.6056 89.7448 92.3322 89.5194 92.1234 89.2145C91.9146 88.9096 91.8102 88.5268 91.8102 88.0661V80.5341Z" fill="white"/>
<defs>
<clipPath id="clip0_2862_224">
<rect width="70" height="70" fill="white" transform="translate(17 6)"/>
</clipPath>
</defs>
</svg>
