<svg width="100" height="100" viewBox="0 0 100 100" fill="none" xmlns="http://www.w3.org/2000/svg">
<path d="M49.9987 22.5C42.2112 22.5 37.3695 26.3792 35.4154 34.1667C38.332 30.2875 41.7445 28.8292 45.6237 29.7917C47.8404 30.3458 49.4445 31.95 51.1945 33.7292C54.0529 36.6458 57.2904 40 64.582 40C72.3695 40 77.2112 36.1208 79.1654 28.3333C76.2487 32.2125 72.8362 33.6708 68.957 32.7083C66.7404 32.1542 65.1654 30.55 63.3862 28.7708C60.5279 25.8542 57.2904 22.5 49.9987 22.5ZM35.4154 40C27.6279 40 22.7862 43.8792 20.832 51.6667C23.7487 47.7875 27.1612 46.3292 31.0404 47.2917C33.257 47.8458 34.832 49.45 36.6112 51.2292C39.4695 54.1458 42.707 57.5 49.9987 57.5C57.7862 57.5 62.6279 53.6208 64.582 45.8333C61.6654 49.7125 58.2529 51.1708 54.3737 50.2083C52.157 49.6542 50.582 48.05 48.8029 46.2708C45.9445 43.3542 42.707 40 35.4154 40Z" fill="white"/>
<path d="M5.70455 79.875V78.3636H14.7102V79.875H11.0795V90H9.32955V79.875H5.70455ZM17.9162 90.1932C17.3632 90.1932 16.8632 90.0909 16.4162 89.8864C15.9692 89.678 15.6151 89.3769 15.3537 88.983C15.0961 88.589 14.9673 88.1061 14.9673 87.5341C14.9673 87.0417 15.062 86.6364 15.2514 86.3182C15.4408 86 15.6965 85.7481 16.0185 85.5625C16.3404 85.3769 16.7003 85.2367 17.098 85.142C17.4957 85.0473 17.901 84.9754 18.3139 84.9261C18.8366 84.8655 19.2609 84.8163 19.5866 84.7784C19.9124 84.7367 20.1491 84.6705 20.2969 84.5795C20.4446 84.4886 20.5185 84.3409 20.5185 84.1364V84.0966C20.5185 83.6004 20.3783 83.2159 20.098 82.9432C19.8215 82.6705 19.4086 82.5341 18.8594 82.5341C18.2874 82.5341 17.8366 82.661 17.5071 82.9148C17.1813 83.1648 16.956 83.4432 16.831 83.75L15.2344 83.3864C15.4238 82.8561 15.7003 82.428 16.0639 82.1023C16.4313 81.7727 16.8537 81.5341 17.331 81.3864C17.8082 81.2348 18.3101 81.1591 18.8366 81.1591C19.1851 81.1591 19.5545 81.2008 19.9446 81.2841C20.3385 81.3636 20.706 81.5114 21.0469 81.7273C21.3916 81.9432 21.6738 82.2519 21.8935 82.6534C22.1132 83.0511 22.223 83.5682 22.223 84.2045V90H20.5639V88.8068H20.4957C20.3859 89.0265 20.2211 89.2424 20.0014 89.4545C19.7817 89.6667 19.4995 89.8428 19.1548 89.983C18.8101 90.1231 18.3973 90.1932 17.9162 90.1932ZM18.2855 88.8295C18.7552 88.8295 19.1567 88.7367 19.4901 88.5511C19.8272 88.3655 20.0829 88.1231 20.2571 87.8239C20.4351 87.5208 20.5241 87.197 20.5241 86.8523V85.7273C20.4635 85.7879 20.3461 85.8447 20.1719 85.8977C20.0014 85.947 19.8063 85.9905 19.5866 86.0284C19.367 86.0625 19.1529 86.0947 18.9446 86.125C18.7363 86.1515 18.562 86.1742 18.4219 86.1932C18.0923 86.2348 17.7912 86.3049 17.5185 86.4034C17.2495 86.5019 17.0336 86.6439 16.8707 86.8295C16.7116 87.0114 16.6321 87.2538 16.6321 87.5568C16.6321 87.9773 16.7874 88.2955 17.098 88.5114C17.4086 88.7235 17.8045 88.8295 18.2855 88.8295ZM24.4858 90V81.2727H26.1847V90H24.4858ZM25.3438 79.9261C25.0483 79.9261 24.7945 79.8277 24.5824 79.6307C24.3741 79.4299 24.2699 79.1913 24.2699 78.9148C24.2699 78.6345 24.3741 78.3958 24.5824 78.1989C24.7945 77.9981 25.0483 77.8977 25.3438 77.8977C25.6392 77.8977 25.8911 77.9981 26.0994 78.1989C26.3116 78.3958 26.4176 78.6345 26.4176 78.9148C26.4176 79.1913 26.3116 79.4299 26.0994 79.6307C25.8911 79.8277 25.6392 79.9261 25.3438 79.9261ZM30.169 78.3636V90H28.4702V78.3636H30.169ZM34.3466 90L31.7784 81.2727H33.5341L35.2443 87.6818H35.3295L37.0455 81.2727H38.8011L40.5057 87.6534H40.5909L42.2898 81.2727H44.0455L41.483 90H39.75L37.9773 83.6989H37.8466L36.0739 90H34.3466ZM45.6577 90V81.2727H47.3565V90H45.6577ZM46.5156 79.9261C46.2202 79.9261 45.9664 79.8277 45.7543 79.6307C45.5459 79.4299 45.4418 79.1913 45.4418 78.9148C45.4418 78.6345 45.5459 78.3958 45.7543 78.1989C45.9664 77.9981 46.2202 77.8977 46.5156 77.8977C46.8111 77.8977 47.063 77.9981 47.2713 78.1989C47.4834 78.3958 47.5895 78.6345 47.5895 78.9148C47.5895 79.1913 47.4834 79.4299 47.2713 79.6307C47.063 79.8277 46.8111 79.9261 46.5156 79.9261ZM51.3409 84.8182V90H49.642V81.2727H51.2727V82.6932H51.3807C51.5814 82.2311 51.8958 81.8598 52.3239 81.5795C52.7557 81.2992 53.2992 81.1591 53.9545 81.1591C54.5492 81.1591 55.0701 81.2841 55.517 81.5341C55.964 81.7803 56.3106 82.1477 56.5568 82.6364C56.803 83.125 56.9261 83.7292 56.9261 84.4489V90H55.2273V84.6534C55.2273 84.0208 55.0625 83.5265 54.733 83.1705C54.4034 82.8106 53.9508 82.6307 53.375 82.6307C52.9811 82.6307 52.6307 82.7159 52.3239 82.8864C52.0208 83.0568 51.7803 83.3068 51.6023 83.6364C51.428 83.9621 51.3409 84.3561 51.3409 84.8182ZM62.4716 90.1705C61.767 90.1705 61.1383 89.9905 60.5852 89.6307C60.036 89.267 59.6042 88.75 59.2898 88.0795C58.9792 87.4053 58.8239 86.5966 58.8239 85.6534C58.8239 84.7102 58.9811 83.9034 59.2955 83.233C59.6136 82.5625 60.0492 82.0492 60.6023 81.6932C61.1553 81.3371 61.7822 81.1591 62.483 81.1591C63.0246 81.1591 63.4602 81.25 63.7898 81.4318C64.1231 81.6098 64.3807 81.8182 64.5625 82.0568C64.7481 82.2955 64.892 82.5057 64.9943 82.6875H65.0966V78.3636H66.7955V90H65.1364V88.642H64.9943C64.892 88.8277 64.7443 89.0398 64.5511 89.2784C64.3617 89.517 64.1004 89.7254 63.767 89.9034C63.4337 90.0814 63.0019 90.1705 62.4716 90.1705ZM62.8466 88.7216C63.3352 88.7216 63.7481 88.5928 64.0852 88.3352C64.4261 88.0739 64.6837 87.7121 64.858 87.25C65.036 86.7879 65.125 86.25 65.125 85.6364C65.125 85.0303 65.0379 84.5 64.8636 84.0455C64.6894 83.5909 64.4337 83.2367 64.0966 82.983C63.7595 82.7292 63.3428 82.6023 62.8466 82.6023C62.3352 82.6023 61.9091 82.7348 61.5682 83C61.2273 83.2652 60.9697 83.6269 60.7955 84.0852C60.625 84.5436 60.5398 85.0606 60.5398 85.6364C60.5398 86.2197 60.6269 86.7443 60.8011 87.2102C60.9754 87.6761 61.233 88.0455 61.5739 88.3182C61.9186 88.5871 62.3428 88.7216 62.8466 88.7216ZM72.8963 90.1761C72.0516 90.1761 71.3243 89.9848 70.7145 89.6023C70.1084 89.2159 69.6425 88.6837 69.3168 88.0057C68.991 87.3277 68.8281 86.5511 68.8281 85.6761C68.8281 84.7898 68.9948 84.0076 69.3281 83.3295C69.6615 82.6477 70.1312 82.1155 70.7372 81.733C71.3433 81.3504 72.0573 81.1591 72.8793 81.1591C73.5421 81.1591 74.133 81.2822 74.652 81.5284C75.1709 81.7708 75.5895 82.1117 75.9077 82.5511C76.2296 82.9905 76.4209 83.5038 76.4815 84.0909H74.8281C74.7372 83.6818 74.5289 83.3295 74.2031 83.0341C73.8812 82.7386 73.4493 82.5909 72.9077 82.5909C72.4342 82.5909 72.0194 82.7159 71.6634 82.9659C71.3111 83.2121 71.0365 83.5644 70.8395 84.0227C70.6425 84.4773 70.544 85.0152 70.544 85.6364C70.544 86.2727 70.6406 86.822 70.8338 87.2841C71.027 87.7462 71.2997 88.1042 71.652 88.358C72.008 88.6117 72.4266 88.7386 72.9077 88.7386C73.2296 88.7386 73.5213 88.6799 73.7827 88.5625C74.0478 88.4413 74.2694 88.2689 74.4474 88.0455C74.6293 87.822 74.7562 87.553 74.8281 87.2386H76.4815C76.4209 87.803 76.2372 88.3068 75.9304 88.75C75.6236 89.1932 75.2126 89.5417 74.6974 89.7955C74.1861 90.0492 73.5857 90.1761 72.8963 90.1761ZM84.8381 83.4034L83.2983 83.6761C83.2339 83.4792 83.1316 83.2917 82.9915 83.1136C82.8551 82.9356 82.6695 82.7898 82.4347 82.6761C82.1998 82.5625 81.9063 82.5057 81.554 82.5057C81.0729 82.5057 80.6714 82.6136 80.3494 82.8295C80.0275 83.0417 79.8665 83.3163 79.8665 83.6534C79.8665 83.9451 79.9744 84.1799 80.1903 84.358C80.4063 84.536 80.7547 84.6818 81.2358 84.7955L82.6222 85.1136C83.4252 85.2992 84.0237 85.5852 84.4176 85.9716C84.8116 86.358 85.0085 86.8598 85.0085 87.4773C85.0085 88 84.857 88.4659 84.554 88.875C84.2547 89.2803 83.8362 89.5985 83.2983 89.8295C82.7642 90.0606 82.1449 90.1761 81.4403 90.1761C80.4631 90.1761 79.6657 89.9678 79.0483 89.5511C78.4309 89.1307 78.0521 88.5341 77.9119 87.7614L79.554 87.5114C79.6563 87.9394 79.8665 88.2633 80.1847 88.483C80.5028 88.6989 80.9176 88.8068 81.429 88.8068C81.9858 88.8068 82.4309 88.6913 82.7642 88.4602C83.0975 88.2254 83.2642 87.9394 83.2642 87.6023C83.2642 87.3295 83.1619 87.1004 82.9574 86.9148C82.7566 86.7292 82.4479 86.589 82.0312 86.4943L80.554 86.1705C79.7396 85.9848 79.1373 85.6894 78.7472 85.2841C78.3608 84.8788 78.1676 84.3655 78.1676 83.7443C78.1676 83.2292 78.3116 82.7784 78.5994 82.392C78.8873 82.0057 79.285 81.7045 79.7926 81.4886C80.3002 81.2689 80.8816 81.1591 81.5369 81.1591C82.4801 81.1591 83.2225 81.3636 83.7642 81.7727C84.3059 82.178 84.6638 82.7216 84.8381 83.4034ZM93.4162 83.4034L91.8764 83.6761C91.812 83.4792 91.7098 83.2917 91.5696 83.1136C91.4332 82.9356 91.2476 82.7898 91.0128 82.6761C90.7779 82.5625 90.4844 82.5057 90.1321 82.5057C89.651 82.5057 89.2495 82.6136 88.9276 82.8295C88.6056 83.0417 88.4446 83.3163 88.4446 83.6534C88.4446 83.9451 88.5526 84.1799 88.7685 84.358C88.9844 84.536 89.3329 84.6818 89.8139 84.7955L91.2003 85.1136C92.0033 85.2992 92.6018 85.5852 92.9957 85.9716C93.3897 86.358 93.5866 86.8598 93.5866 87.4773C93.5866 88 93.4351 88.4659 93.1321 88.875C92.8329 89.2803 92.4143 89.5985 91.8764 89.8295C91.3423 90.0606 90.723 90.1761 90.0185 90.1761C89.0412 90.1761 88.2438 89.9678 87.6264 89.5511C87.009 89.1307 86.6302 88.5341 86.4901 87.7614L88.1321 87.5114C88.2344 87.9394 88.4446 88.2633 88.7628 88.483C89.081 88.6989 89.4957 88.8068 90.0071 88.8068C90.5639 88.8068 91.009 88.6913 91.3423 88.4602C91.6757 88.2254 91.8423 87.9394 91.8423 87.6023C91.8423 87.3295 91.7401 87.1004 91.5355 86.9148C91.3348 86.7292 91.026 86.589 90.6094 86.4943L89.1321 86.1705C88.3177 85.9848 87.7154 85.6894 87.3253 85.2841C86.9389 84.8788 86.7457 84.3655 86.7457 83.7443C86.7457 83.2292 86.8897 82.7784 87.1776 82.392C87.4654 82.0057 87.8632 81.7045 88.3707 81.4886C88.8783 81.2689 89.4598 81.1591 90.1151 81.1591C91.0582 81.1591 91.8007 81.3636 92.3423 81.7727C92.884 82.178 93.242 82.7216 93.4162 83.4034Z" fill="white"/>
</svg>
