<svg width="20" height="20" viewBox="0 0 20 20" fill="none" xmlns="http://www.w3.org/2000/svg">
<path fill-rule="evenodd" clip-rule="evenodd" d="M15.4043 16.4917V16.49L15.4193 16.4542L17.9184 3.85415V3.81415C17.9184 3.49999 17.8018 3.22582 17.5501 3.06165C17.3293 2.91749 17.0751 2.90749 16.8968 2.92082C16.7308 2.93583 16.567 2.96938 16.4084 3.02082C16.3408 3.04262 16.2741 3.06708 16.2084 3.09415L16.1976 3.09832L2.26427 8.56415L2.2601 8.56582C2.21774 8.58029 2.17628 8.59726 2.13593 8.61665C2.03684 8.66117 1.94177 8.71415 1.85177 8.77499C1.6726 8.89832 1.33177 9.18832 1.38927 9.64832C1.43677 10.03 1.69927 10.2717 1.87677 10.3975C1.98154 10.4709 2.09418 10.5324 2.2126 10.5808L2.23927 10.5925L2.2476 10.595L2.25343 10.5975L4.69177 11.4183C4.68343 11.5708 4.69843 11.7267 4.73927 11.8808L5.9601 16.5133C6.02679 16.7658 6.17091 16.9911 6.3722 17.1575C6.5735 17.3239 6.82186 17.4231 7.08241 17.4411C7.34296 17.4592 7.60262 17.3951 7.8249 17.258C8.04719 17.1209 8.22095 16.9176 8.32177 16.6767L10.2284 14.6383L13.5026 17.1483L13.5493 17.1683C13.8468 17.2983 14.1243 17.3392 14.3784 17.305C14.6326 17.27 14.8343 17.1633 14.9859 17.0425C15.1614 16.9003 15.3012 16.7191 15.3943 16.5133L15.4009 16.4992L15.4034 16.4942L15.4043 16.4917ZM5.9476 11.5625C5.93408 11.5111 5.93729 11.4567 5.95677 11.4073C5.97625 11.3578 6.01099 11.3159 6.05593 11.2875L14.3234 6.03749C14.3234 6.03749 14.8101 5.74165 14.7926 6.03749C14.7926 6.03749 14.8793 6.08915 14.6184 6.33165C14.3718 6.56249 8.72593 12.0133 8.15427 12.565C8.12248 12.5959 8.10021 12.6352 8.0901 12.6783L7.16843 16.195L5.9476 11.5625Z" fill="#131A35"/>
</svg>
