<svg width="20" height="20" viewBox="0 0 20 20" fill="none" xmlns="http://www.w3.org/2000/svg">
<path d="M10.0013 1.6665C14.6038 1.6665 18.3346 5.39734 18.3346 9.99984C18.3346 14.6023 14.6038 18.3332 10.0013 18.3332C8.52863 18.3355 7.08186 17.9458 5.80965 17.204L1.67131 18.3332L2.79798 14.1932C2.05556 12.9206 1.66552 11.4732 1.66798 9.99984C1.66798 5.39734 5.39881 1.6665 10.0013 1.6665ZM7.16131 6.08317L6.99465 6.08984C6.88675 6.09641 6.7813 6.12475 6.68465 6.17317C6.59425 6.22436 6.51173 6.28836 6.43965 6.36317C6.33965 6.45734 6.28298 6.539 6.22215 6.61817C5.91392 7.01892 5.74796 7.51093 5.75048 8.0165C5.75215 8.42484 5.85881 8.82234 6.02548 9.194C6.36631 9.94567 6.92715 10.7415 7.66715 11.479C7.84548 11.6565 8.02048 11.8348 8.20881 12.0007C9.1283 12.8102 10.224 13.394 11.4088 13.7057L11.8821 13.7782C12.0363 13.7865 12.1905 13.7748 12.3455 13.7673C12.5882 13.7548 12.8252 13.6891 13.0396 13.5748C13.1488 13.5186 13.2553 13.4574 13.3588 13.3915C13.3588 13.3915 13.3946 13.3682 13.463 13.3165C13.5755 13.2332 13.6446 13.174 13.738 13.0765C13.8071 13.0048 13.8671 12.9207 13.913 12.8248C13.978 12.689 14.043 12.4298 14.0696 12.214C14.0896 12.049 14.0838 11.959 14.0813 11.9032C14.078 11.814 14.0038 11.7215 13.923 11.6823L13.438 11.4648C13.438 11.4648 12.713 11.149 12.2696 10.9473C12.2233 10.9271 12.1735 10.9155 12.123 10.9132C12.066 10.9073 12.0084 10.9137 11.954 10.932C11.8997 10.9502 11.8499 10.9799 11.808 11.019C11.8038 11.0173 11.748 11.0648 11.1455 11.7948C11.1109 11.8413 11.0633 11.8764 11.0086 11.8957C10.954 11.915 10.8949 11.9176 10.8388 11.9032C10.7845 11.8886 10.7313 11.8702 10.6796 11.8482C10.5763 11.8048 10.5405 11.7882 10.4696 11.7582C9.99137 11.5495 9.54855 11.2675 9.15715 10.9223C9.05215 10.8307 8.95465 10.7307 8.85465 10.634C8.5268 10.32 8.24108 9.96484 8.00465 9.57734L7.95548 9.49817C7.92017 9.44497 7.89161 9.38759 7.87048 9.32734C7.83881 9.20484 7.92131 9.1065 7.92131 9.1065C7.92131 9.1065 8.12381 8.88484 8.21798 8.76484C8.30965 8.64817 8.38715 8.53484 8.43715 8.454C8.53548 8.29567 8.56631 8.13317 8.51465 8.00734C8.28131 7.43734 8.03965 6.86984 7.79131 6.3065C7.74215 6.19484 7.59631 6.11484 7.46381 6.099C7.41881 6.094 7.37381 6.089 7.32881 6.08567C7.2169 6.08011 7.10476 6.08122 6.99298 6.089L7.16131 6.08317Z" fill="#131A35"/>
</svg>
