<svg width="1280" height="163" viewBox="0 0 1280 163" fill="none" xmlns="http://www.w3.org/2000/svg">
<g clip-path="url(#clip0_2923_414)">
<path d="M0 97.8L35.5556 95.1003C71.1111 92.1969 142.222 87.1031 213.333 95.1003C284.444 103.403 355.556 124.797 426.667 114.1C497.778 103.403 568.889 59.5969 640 57.05C711.111 54.5031 782.222 92.1969 853.333 105.95C924.444 119.703 995.556 108.497 1066.67 92.3497C1137.78 75.8969 1208.89 54.5031 1280 43.4497C1351.11 32.6 1422.22 32.6 1493.33 51.5997C1564.44 70.8031 1635.56 108.497 1706.67 124.95C1777.78 141.097 1848.89 136.003 1920 111.4C1991.11 87.1031 2062.22 43.2969 2133.33 29.9003C2204.44 16.3 2275.56 32.6 2346.67 43.4497C2417.78 54.5031 2488.89 59.5969 2560 67.8997C2631.11 75.8969 2702.22 87.1031 2773.33 86.9503C2844.44 87.1031 2915.56 75.8969 2986.67 84.1997C3057.78 92.1969 3128.89 119.703 3200 119.55C3271.11 119.703 3342.22 92.1969 3413.33 92.3497C3484.44 92.1969 3555.56 119.703 3626.67 124.95C3697.78 130.4 3768.89 114.1 3840 95.1003C3911.11 75.8969 3982.22 54.5031 4053.33 46.2003C4124.44 38.2031 4195.56 43.2969 4266.67 46.2003C4337.78 48.9 4408.89 48.9 4480 48.9C4551.11 48.9 4622.22 48.9 4693.33 46.2003C4764.44 43.2969 4835.56 38.2031 4906.67 29.9003C4977.78 21.9031 5048.89 10.6969 5084.44 5.45031L5120 0V163H5084.44C5048.89 163 4977.78 163 4906.67 163C4835.56 163 4764.44 163 4693.33 163C4622.22 163 4551.11 163 4480 163C4408.89 163 4337.78 163 4266.67 163C4195.56 163 4124.44 163 4053.33 163C3982.22 163 3911.11 163 3840 163C3768.89 163 3697.78 163 3626.67 163C3555.56 163 3484.44 163 3413.33 163C3342.22 163 3271.11 163 3200 163C3128.89 163 3057.78 163 2986.67 163C2915.56 163 2844.44 163 2773.33 163C2702.22 163 2631.11 163 2560 163C2488.89 163 2417.78 163 2346.67 163C2275.56 163 2204.44 163 2133.33 163C2062.22 163 1991.11 163 1920 163C1848.89 163 1777.78 163 1706.67 163C1635.56 163 1564.44 163 1493.33 163C1422.22 163 1351.11 163 1280 163C1208.89 163 1137.78 163 1066.67 163C995.556 163 924.444 163 853.333 163C782.222 163 711.111 163 640 163C568.889 163 497.778 163 426.667 163C355.556 163 284.444 163 213.333 163C142.222 163 71.1111 163 35.5556 163H0V97.8Z" fill="white"/>
<path opacity="0.9" d="M0 146.7L35.5556 124.949C71.1111 103.403 142.222 59.5965 213.333 57.0496C284.444 54.5027 355.556 92.1965 426.667 97.7996C497.778 103.403 568.889 75.8965 640 78.7999C711.111 81.4996 782.222 114.1 853.333 105.95C924.444 97.7996 995.556 48.8996 1066.67 43.4493C1137.78 38.2027 1208.89 75.8965 1280 78.7999C1351.11 81.4996 1422.22 48.8996 1493.33 46.1999C1564.44 43.2965 1635.56 70.8027 1706.67 73.3496C1777.78 75.8965 1848.89 54.5027 1920 59.7493C1991.11 65.1996 2062.22 97.7996 2133.33 114.1C2204.44 130.4 2275.56 130.4 2346.67 108.649C2417.78 87.1027 2488.89 43.2965 2560 40.7496C2631.11 38.2027 2702.22 75.8965 2773.33 100.499C2844.44 124.796 2915.56 136.003 2986.67 133.099C3057.78 130.4 3128.89 114.1 3200 100.499C3271.11 87.1027 3342.22 75.8965 3413.33 76.0493C3484.44 75.8965 3555.56 87.1027 3626.67 81.4996C3697.78 75.8965 3768.89 54.5027 3840 57.0496C3911.11 59.5965 3982.22 87.1027 4053.33 89.6496C4124.44 92.1965 4195.56 70.8027 4266.67 70.6499C4337.78 70.8027 4408.89 92.1965 4480 103.25C4551.11 114.1 4622.22 114.1 4693.33 103.25C4764.44 92.1965 4835.56 70.8027 4906.67 70.6499C4977.78 70.8027 5048.89 92.1965 5084.44 103.25L5120 114.1V163H5084.44C5048.89 163 4977.78 163 4906.67 163C4835.56 163 4764.44 163 4693.33 163C4622.22 163 4551.11 163 4480 163C4408.89 163 4337.78 163 4266.67 163C4195.56 163 4124.44 163 4053.33 163C3982.22 163 3911.11 163 3840 163C3768.89 163 3697.78 163 3626.67 163C3555.56 163 3484.44 163 3413.33 163C3342.22 163 3271.11 163 3200 163C3128.89 163 3057.78 163 2986.67 163C2915.56 163 2844.44 163 2773.33 163C2702.22 163 2631.11 163 2560 163C2488.89 163 2417.78 163 2346.67 163C2275.56 163 2204.44 163 2133.33 163C2062.22 163 1991.11 163 1920 163C1848.89 163 1777.78 163 1706.67 163C1635.56 163 1564.44 163 1493.33 163C1422.22 163 1351.11 163 1280 163C1208.89 163 1137.78 163 1066.67 163C995.556 163 924.444 163 853.333 163C782.222 163 711.111 163 640 163C568.889 163 497.778 163 426.667 163C355.556 163 284.444 163 213.333 163C142.222 163 71.1111 163 35.5556 163H0V146.7Z" fill="white" fill-opacity="0.9"/>
<path opacity="0.8" d="M0 81.4996H35.5556C71.1111 81.4996 142.222 81.4996 213.333 89.6496C284.444 97.7996 355.556 114.1 426.667 116.799C497.778 119.703 568.889 108.496 640 97.7996C711.111 87.1027 782.222 75.8965 853.333 78.7999C924.444 81.4996 995.556 97.7996 1066.67 103.25C1137.78 108.496 1208.89 103.403 1280 89.6496C1351.11 75.8965 1422.22 54.5027 1493.33 54.3499C1564.44 54.5027 1635.56 75.8965 1706.67 92.3493C1777.78 108.496 1848.89 119.703 1920 119.55C1991.11 119.703 2062.22 108.496 2133.33 108.649C2204.44 108.496 2275.56 119.703 2346.67 103.25C2417.78 87.1027 2488.89 43.2965 2560 35.2993C2631.11 26.9965 2702.22 54.5027 2773.33 62.4999C2844.44 70.8027 2915.56 59.5965 2986.67 67.8993C3057.78 75.8965 3128.89 103.403 3200 97.7996C3271.11 92.1965 3342.22 54.5027 3413.33 43.4493C3484.44 32.5996 3555.56 48.8996 3626.67 65.1996C3697.78 81.4996 3768.89 97.7996 3840 108.649C3911.11 119.703 3982.22 124.796 4053.33 127.7C4124.44 130.4 4195.56 130.4 4266.67 130.4C4337.78 130.4 4408.89 130.4 4480 127.7C4551.11 124.796 4622.22 119.703 4693.33 116.799C4764.44 114.1 4835.56 114.1 4906.67 100.499C4977.78 87.1027 5048.89 59.5965 5084.44 46.1999L5120 32.5996V163H5084.44C5048.89 163 4977.78 163 4906.67 163C4835.56 163 4764.44 163 4693.33 163C4622.22 163 4551.11 163 4480 163C4408.89 163 4337.78 163 4266.67 163C4195.56 163 4124.44 163 4053.33 163C3982.22 163 3911.11 163 3840 163C3768.89 163 3697.78 163 3626.67 163C3555.56 163 3484.44 163 3413.33 163C3342.22 163 3271.11 163 3200 163C3128.89 163 3057.78 163 2986.67 163C2915.56 163 2844.44 163 2773.33 163C2702.22 163 2631.11 163 2560 163C2488.89 163 2417.78 163 2346.67 163C2275.56 163 2204.44 163 2133.33 163C2062.22 163 1991.11 163 1920 163C1848.89 163 1777.78 163 1706.67 163C1635.56 163 1564.44 163 1493.33 163C1422.22 163 1351.11 163 1280 163C1208.89 163 1137.78 163 1066.67 163C995.556 163 924.444 163 853.333 163C782.222 163 711.111 163 640 163C568.889 163 497.778 163 426.667 163C355.556 163 284.444 163 213.333 163C142.222 163 71.1111 163 35.5556 163H0V81.4996Z" fill="white" fill-opacity="0.71"/>
</g>
<defs>
<clipPath id="clip0_2923_414">
<rect width="1280" height="163" fill="white"/>
</clipPath>
</defs>
</svg>
